<svg preserveAspectRatio="none" width="100%" height="100%" overflow="visible" style="display: block;" viewBox="0 0 12 15" fill="none" xmlns="http://www.w3.org/2000/svg">
<g id="Solid">
<path fill-rule="evenodd" clip-rule="evenodd" d="M6.66591 0.634848C6.66667 0.650749 6.66667 0.659517 6.66667 0.677051L6.66667 3.62127C6.66665 3.78953 6.66663 3.95339 6.67797 4.09216C6.69042 4.24456 6.7198 4.42438 6.81199 4.60533C6.93983 4.85621 7.1438 5.06018 7.39468 5.18802C7.57563 5.28021 7.75545 5.30959 7.90785 5.32204C8.04662 5.33338 8.21047 5.33336 8.37873 5.33334L11.323 5.33334C11.3405 5.33334 11.3492 5.33334 11.3651 5.3341C11.6943 5.34981 11.9837 5.63932 11.9993 5.96855C12 5.98443 12 5.9896 12 5.99996V10.8276C12 11.3642 12 11.8071 11.9705 12.1679C11.9399 12.5426 11.8742 12.8871 11.7093 13.2106C11.4537 13.7124 11.0457 14.1204 10.544 14.376C10.2204 14.5409 9.87595 14.6066 9.50122 14.6372C9.14042 14.6667 8.69752 14.6667 8.16088 14.6667H3.83912C3.30248 14.6667 2.85958 14.6667 2.49878 14.6372C2.12405 14.6066 1.77958 14.5409 1.45603 14.376C0.954261 14.1204 0.546313 13.7124 0.29065 13.2106C0.12579 12.8871 0.0600803 12.5426 0.0294635 12.1679C-1.43598e-05 11.8071 -7.74758e-06 11.3642 2.62943e-07 10.8275V3.83912C-7.74758e-06 3.30249 -1.43598e-05 2.85958 0.0294635 2.49878C0.0600803 2.12405 0.12579 1.77958 0.29065 1.45603C0.546313 0.954261 0.954261 0.546313 1.45603 0.290651C1.77958 0.12579 2.12405 0.0600809 2.49878 0.0294641C2.85957 -1.35923e-05 3.30247 -7.17599e-06 3.8391 5.98426e-07H6C6.01039 -3.62326e-06 6.01561 -5.73423e-06 6.03151 0.000746146C6.3607 0.0163194 6.65018 0.305663 6.66591 0.634848Z" fill="var(--fill-0, #59AD3B)"/>
<path d="M10.9791 3.95085C10.8989 4 10.8011 4 10.6053 3.99999L8.53333 3.99997C8.34664 3.99996 8.2533 3.99996 8.182 3.96363C8.11928 3.93167 8.06829 3.88068 8.03633 3.81796C8 3.74666 8 3.65332 8 3.46664L8 1.39469C8 1.19894 8 1.10107 8.04916 1.02089C8.11857 0.907667 8.28211 0.839975 8.41124 0.871015C8.50268 0.892995 8.56645 0.956823 8.69398 1.08448L10.9155 3.30602C11.0432 3.43355 11.107 3.49732 11.129 3.58876C11.16 3.71789 11.0923 3.88143 10.9791 3.95085Z" fill="var(--fill-0, #59AD3B)"/>
</g>
</svg>
