<svg preserveAspectRatio="none" width="100%" height="100%" overflow="visible" style="display: block;" viewBox="0 0 49 50" fill="none" xmlns="http://www.w3.org/2000/svg">
<path id="Solid" d="M23.8431 0C22.2134 0 20.7366 0.959751 20.0747 2.44897L12.468 19.5642C12.2834 19.9794 12.1871 20.1936 12.1081 20.3443L12.101 20.3576L12.086 20.3586C11.9162 20.3696 11.6814 20.3707 11.227 20.3707L9.41908 20.3707C8.22593 20.3706 7.19661 20.3706 6.3488 20.4399C5.45397 20.513 4.56396 20.6744 3.70753 21.1108C2.42987 21.7618 1.3911 22.8005 0.740096 24.0782C0.303725 24.9346 0.142307 25.8246 0.0691971 26.7195C-6.98495e-05 27.5673 -3.66659e-05 28.5965 1.80407e-06 29.7897V40.3759C-3.66659e-05 41.569 -6.98453e-05 42.5984 0.0691971 43.4462C0.142307 44.341 0.303725 45.231 0.740096 46.0875C1.3911 47.3651 2.42987 48.4039 3.70753 49.0549C4.56396 49.4913 5.45398 49.6527 6.3488 49.7258C7.1966 49.7951 8.2259 49.795 9.41903 49.795C10.4673 49.795 11.317 48.9452 11.317 47.897L11.317 29.4243C11.317 28.1743 12.3304 27.1609 13.5805 27.1609C14.8305 27.1609 15.8439 28.1743 15.8439 29.4243L15.8439 46.1735C15.8439 47.4412 15.8439 48.075 16.0906 48.5591C16.3076 48.985 16.6538 49.3313 17.0797 49.5483C17.5639 49.795 18.1977 49.795 19.4653 49.795H33.7691C35.3507 49.795 36.6638 49.795 37.7442 49.7128C38.8723 49.6269 39.9121 49.4428 40.916 48.9879C42.4858 48.2766 43.82 47.1319 44.7618 45.6885C45.364 44.7655 45.7041 43.7657 45.9605 42.6639C46.2061 41.6086 46.4057 40.3108 46.6462 38.7477L47.8585 30.8676C48.1771 28.7967 48.4383 27.0989 48.5307 25.7133C48.6261 24.2836 48.5637 22.9497 48.076 21.671C47.3272 19.7077 45.9187 18.0659 44.0921 17.0273C42.9024 16.3508 41.5935 16.0863 40.166 15.9632C38.7823 15.8438 37.0646 15.8438 34.9693 15.8439H33.0458C32.3746 15.8439 32.0074 15.8421 31.7435 15.8205L31.7136 15.8179L31.711 15.7881C31.6895 15.5242 31.6877 15.157 31.6877 14.4858V7.84461C31.6877 3.51215 28.1756 0 23.8431 0Z" fill="var(--fill-0, white)"/>
</svg>
