<svg preserveAspectRatio="none" width="100%" height="100%" overflow="visible" style="display: block;" viewBox="0 0 19 15" fill="none" xmlns="http://www.w3.org/2000/svg">
<path d="M16.2168 14.4727H2.7832C2.01628 14.4727 1.36068 14.2005 0.816406 13.6562C0.272135 13.112 0 12.4564 0 11.6895V2.7832C0 2.01628 0.272135 1.36068 0.816406 0.816406C1.36068 0.272135 2.01628 0 2.7832 0H16.2168C16.9837 0 17.6393 0.272135 18.1836 0.816406C18.7279 1.36068 19 2.01628 19 2.7832V11.6895C19 12.4564 18.7279 13.112 18.1836 13.6562C17.6393 14.2005 16.9837 14.4727 16.2168 14.4727ZM6.7168 3.39551V10.9658L13.415 7.23633L6.7168 3.39551ZM7.83008 9.07324V5.3252L11.1514 7.23633L7.83008 9.07324Z" fill="#59AD3B"/>
</svg>

