<svg width="44" height="44" viewBox="0 0 44 44" fill="none" xmlns="http://www.w3.org/2000/svg">
<rect width="44" height="44" rx="8" fill="#F8F8F8"/>
<path d="M29.8711 20.7305C30.9128 19.3242 31.4629 18.4616 31.5215 18.1426C31.5801 17.8236 31.7396 17.4427 32 17H28.0352C28.0352 17 27.9831 17.1693 27.8789 17.5078C27.7747 17.8464 27.7031 18.0612 27.6641 18.1523C27.4688 18.543 27.2279 18.9661 26.9414 19.4219C26.6549 19.8776 26.349 20.304 26.0234 20.7012C25.6979 21.0983 25.3724 21.4466 25.0469 21.7461C24.7214 22.0326 24.4284 22.2083 24.168 22.2734C23.6602 22.3906 23.3867 22.013 23.3477 21.1406C23.3086 20.2682 23.3086 19.5716 23.3477 19.0508C23.3737 18.569 23.3867 18.224 23.3867 18.0156C23.3867 17.8073 23.3802 17.6641 23.3672 17.5859C23.3411 17.4557 23.2826 17.3516 23.1914 17.2734C23.1003 17.1953 22.9961 17.1497 22.8789 17.1367C22.6185 17.0977 22.2734 17.0618 21.8438 17.0293C21.4141 16.9967 20.9388 16.9935 20.418 17.0195L19.5 17.0586C19.6823 17.4622 19.8353 17.6966 19.959 17.7617C20.0827 17.8268 20.1771 18.0938 20.2422 18.5625C20.3203 19.1094 20.3105 19.8743 20.2129 20.8574C20.1152 21.8405 19.793 22.332 19.2461 22.332C18.8164 22.332 18.3802 22.0586 17.9375 21.5117C17.5078 20.9648 17.1139 20.3626 16.7559 19.7051C16.3978 19.0475 16.1016 18.4388 15.8672 17.8789C15.6458 17.319 15.5286 17.026 15.5156 17H12L12.3125 17.8008C12.9635 19.4154 13.6536 20.8216 14.3828 22.0195C15.125 23.2174 15.916 24.2135 16.7559 25.0078C17.5957 25.8021 18.4974 26.4076 19.4609 26.8242C20.4245 27.2279 21.4596 27.4622 22.5664 27.5273L23.1523 27.5469L23.1914 26.9805C23.2174 26.5508 23.3379 26.0918 23.5527 25.6035C23.7676 25.1152 24.0703 24.8711 24.4609 24.8711C25.0208 24.8711 25.4342 24.9655 25.7012 25.1543C25.9681 25.3431 26.2904 25.6719 26.668 26.1406C27.0326 26.5833 27.3743 26.9284 27.6934 27.1758C28.0124 27.4232 28.4648 27.5469 29.0508 27.5469H32L31.5703 26.707C31.2448 26.043 30.8151 25.4408 30.2812 24.9004C29.7474 24.36 29.3503 23.9206 29.0898 23.582C28.9987 23.4648 28.9206 23.3118 28.8555 23.123C28.7904 22.9342 28.8099 22.7227 28.9141 22.4883C28.9922 22.2799 29.1289 21.9935 29.3242 21.6289C29.5195 21.2643 29.7018 20.9648 29.8711 20.7305Z" fill="#D2D2D2"/>
</svg>


