<svg preserveAspectRatio="none" width="100%" height="100%" overflow="visible" style="display: block;" viewBox="0 0 16 16" fill="none" xmlns="http://www.w3.org/2000/svg">
<path d="M16 6.57761C14.3647 6.57761 12.8486 6.12159 11.6116 5.34689V10.9371C11.6116 13.7292 9.00688 16 5.80581 16C4.56881 16 3.42125 15.66 2.47859 15.0826C0.981651 14.1659 0 12.6499 0 10.9371C0 8.14501 2.60474 5.87358 5.80658 5.87358C6.07263 5.87358 6.33257 5.89291 6.58869 5.92291V6.57427V8.73103C6.34098 8.66369 6.07951 8.62436 5.80658 8.62436C4.3448 8.62436 3.1552 9.66174 3.1552 10.9371C3.1552 11.8252 3.73318 12.5965 4.57722 12.9839C4.94495 13.1525 5.36315 13.2492 5.80734 13.2492C7.23547 13.2492 8.40061 12.2585 8.45413 11.0238L8.45642 0H11.6109C11.6109 0.238677 11.6376 0.471353 11.685 0.698029C11.9075 1.74607 12.6208 2.64544 13.6093 3.20747C14.2974 3.59882 15.1185 3.82749 15.9992 3.82749L16 6.57761Z" fill="#59AD3B"/>
</svg>

