<svg preserveAspectRatio="none" width="100%" height="100%" overflow="visible" style="display: block;" viewBox="0 0 11 19" fill="none" xmlns="http://www.w3.org/2000/svg">
<path id="Vector" d="M5.45281 2.98828C6.56219 2.98828 7.46453 3.89062 7.46453 5C7.46453 6.10547 6.56219 7.00781 5.45281 7.00781C4.34344 7.00781 3.44109 6.10547 3.44109 5C3.44109 3.89062 4.34344 2.98828 5.45281 2.98828ZM5.45281 9.99609C8.21063 9.99609 10.4489 7.75781 10.4489 5C10.4489 2.24219 8.21063 0 5.45281 0C2.695 0 0.452813 2.24219 0.452813 5C0.452813 7.75391 2.695 9.99609 5.45281 9.99609ZM7.41766 13.8164C8.40594 13.5938 9.35906 13.2031 10.238 12.6484C10.902 12.2305 11.1012 11.3516 10.6833 10.6875C10.2653 10.0234 9.38641 9.82031 8.72234 10.2422C6.73016 11.4922 4.17156 11.4922 2.18328 10.2422C1.51531 9.82031 0.636407 10.0234 0.218438 10.6875C-0.199531 11.3516 -0.00031215 12.2305 0.667657 12.6484C1.54266 13.2031 2.49969 13.5938 3.48797 13.8164L0.769218 16.5352C0.214531 17.0898 0.214532 17.9922 0.773126 18.5469C1.05047 18.8242 1.41375 18.9648 1.77703 18.9648C2.14031 18.9648 2.5075 18.8242 2.78484 18.5469L5.45281 15.8789L8.12469 18.5469C8.67938 19.1016 9.57781 19.1016 10.1364 18.5469C10.6911 17.9922 10.6911 17.0898 10.1364 16.5352L7.41766 13.8164Z" fill="var(--fill-0, #D2D2D2)"/>
</svg>
