<svg width="44" height="44" viewBox="0 0 44 44" fill="none" xmlns="http://www.w3.org/2000/svg">
<rect width="44" height="44" rx="8" fill="#F8F8F8"/>
<path d="M23.5016 21.75L15 13.7809C15 16.4255 15 18.7426 15 20.7319C15 22.7213 15 24.3801 15 25.7082C15 27.0364 15 28.034 15 28.7011C15 29.3798 15 29.725 15 29.7367L23.5016 21.75ZM26.4978 18.8537L16.367 13.5176C16.367 13.5059 16.3608 13.5 16.3483 13.5C16.3358 13.5 16.3233 13.5 16.3108 13.5C16.2983 13.5117 16.289 13.5176 16.2827 13.5176C16.2765 13.5176 16.2671 13.5234 16.2546 13.5351C16.2546 13.5468 16.2515 13.5556 16.2453 13.5614C16.239 13.5673 16.2422 13.5761 16.2546 13.5878C16.2546 13.5995 16.2546 13.6112 16.2546 13.6229C16.2546 13.6346 16.2609 13.6404 16.2734 13.6404L24.157 21.0479L26.4978 18.8537ZM24.157 22.4521L16.2734 29.8596C16.2609 29.8596 16.2546 29.8654 16.2546 29.8771C16.2546 29.8888 16.2546 29.9005 16.2546 29.9122C16.2422 29.9239 16.239 29.9327 16.2453 29.9386C16.2515 29.9444 16.2546 29.9532 16.2546 29.9649C16.2671 29.9766 16.2765 29.9824 16.2827 29.9824C16.289 29.9824 16.2983 29.9883 16.3108 30C16.3233 30 16.3358 30 16.3483 30C16.3608 30 16.367 29.9941 16.367 29.9824L26.4978 24.6463L24.157 22.4521ZM31.2917 21.75C31.2917 21.6447 31.2417 21.5364 31.1419 21.4253C31.042 21.3141 30.9047 21.2117 30.7299 21.1181L27.3966 19.3277L24.8125 21.75L27.3966 24.1723L30.7299 22.3995C30.9047 22.2941 31.042 22.1859 31.1419 22.0747C31.2417 21.9636 31.2917 21.8553 31.2917 21.75Z" fill="#202020"/>
</svg>


