<svg preserveAspectRatio="none" width="100%" height="100%" overflow="visible" style="display: block;" viewBox="0 0 20 11" fill="none" xmlns="http://www.w3.org/2000/svg">
<path id="Vector" d="M17.8711 6.81641C18.9128 8.22266 19.4629 9.08529 19.5215 9.4043C19.5801 9.72331 19.7396 10.1042 20 10.5469H16.0352C16.0352 10.5469 15.9831 10.3776 15.8789 10.0391C15.7747 9.70052 15.7031 9.48568 15.6641 9.39453C15.4688 9.00391 15.2279 8.58073 14.9414 8.125C14.6549 7.66927 14.349 7.24284 14.0234 6.8457C13.6979 6.44857 13.3724 6.10026 13.0469 5.80078C12.7214 5.51432 12.4284 5.33854 12.168 5.27344C11.6602 5.15625 11.3867 5.53385 11.3477 6.40625C11.3086 7.27865 11.3086 7.97526 11.3477 8.49609C11.3737 8.97786 11.3867 9.32292 11.3867 9.53125C11.3867 9.73958 11.3802 9.88281 11.3672 9.96094C11.3411 10.0911 11.2826 10.1953 11.1914 10.2734C11.1003 10.3516 10.9961 10.3971 10.8789 10.4102C10.6185 10.4492 10.2734 10.485 9.84375 10.5176C9.41406 10.5501 8.9388 10.5534 8.41797 10.5273L7.5 10.4883C7.68229 10.0846 7.83529 9.85026 7.95898 9.78516C8.08268 9.72005 8.17708 9.45312 8.24219 8.98438C8.32031 8.4375 8.31055 7.67253 8.21289 6.68945C8.11523 5.70638 7.79297 5.21484 7.24609 5.21484C6.81641 5.21484 6.38021 5.48828 5.9375 6.03516C5.50781 6.58203 5.11393 7.18424 4.75586 7.8418C4.39779 8.49935 4.10156 9.10807 3.86719 9.66797C3.64583 10.2279 3.52865 10.5208 3.51562 10.5469H0L0.3125 9.74609C0.963542 8.13151 1.65365 6.72526 2.38281 5.52734C3.125 4.32943 3.91602 3.33333 4.75586 2.53906C5.5957 1.74479 6.4974 1.13932 7.46094 0.722656C8.42448 0.31901 9.45964 0.0846354 10.5664 0.0195312L11.1523 0L11.1914 0.566406C11.2174 0.996094 11.3379 1.45508 11.5527 1.94336C11.7676 2.43164 12.0703 2.67578 12.4609 2.67578C13.0208 2.67578 13.4342 2.58138 13.7012 2.39258C13.9681 2.20378 14.2904 1.875 14.668 1.40625C15.0326 0.963542 15.3743 0.61849 15.6934 0.371094C16.0124 0.123698 16.4648 0 17.0508 0H20L19.5703 0.839844C19.2448 1.50391 18.8151 2.10612 18.2812 2.64648C17.7474 3.18685 17.3503 3.6263 17.0898 3.96484C16.9987 4.08203 16.9206 4.23503 16.8555 4.42383C16.7904 4.61263 16.8099 4.82422 16.9141 5.05859C16.9922 5.26693 17.1289 5.55339 17.3242 5.91797C17.5195 6.28255 17.7018 6.58203 17.8711 6.81641Z" fill="var(--fill-0, #202020)"/>
</svg>
