<svg width="16" height="12" viewBox="0 0 16 12" fill="none" xmlns="http://www.w3.org/2000/svg">
<path d="M13.0872 12H2.24609C1.62717 12 1.09809 11.7744 0.658854 11.3231C0.219618 10.8718 0 10.3282 0 9.69231V2.30769C0 1.67179 0.219618 1.12821 0.658854 0.676923C1.09809 0.225641 1.62717 0 2.24609 0H13.0872C13.7062 0 14.2352 0.225641 14.6745 0.676923C15.1137 1.12821 15.3333 1.67179 15.3333 2.30769V9.69231C15.3333 10.3282 15.1137 10.8718 14.6745 11.3231C14.2352 11.7744 13.7062 12 13.0872 12ZM5.42057 2.81538V9.09231L10.8262 6L5.42057 2.81538ZM6.31901 7.52308V4.41538L8.99935 6L6.31901 7.52308Z" fill="#59AD3B"/>
</svg>
