<svg width="24" height="24" viewBox="0 0 24 24" fill="none" xmlns="http://www.w3.org/2000/svg">
  <path
    d="M20.53 5.17L3.74 11.63C3.17 11.85 3.2 12.67 3.78 12.85L7.82 14.09L9.37 19.1C9.54 19.66 10.26 19.85 10.69 19.45L13.02 17.28L17.26 20.37C17.76 20.74 18.48 20.47 18.62 19.86L21.11 6.07C21.25 5.4 20.93 5.01 20.53 5.17ZM17.38 8.11L9.51 14.66C9.38 14.76 9.3 14.91 9.29 15.08L9.17 17.19C9.16 17.36 8.93 17.39 8.88 17.23L7.93 14.2L16.94 8.5C17.17 8.35 17.6 8.54 17.38 8.11Z"
    fill="#D2D2D2"
  />
</svg>


