<svg preserveAspectRatio="none" width="100%" height="100%" overflow="visible" style="display: block;" viewBox="0 0 16 18" fill="none" xmlns="http://www.w3.org/2000/svg">
<path id="Vector" d="M13.3706 8.43153C13.3706 8.03973 13.4313 7.66018 13.5526 7.29286C13.674 6.92555 13.856 6.57661 14.0987 6.24603C14.328 5.92769 14.6044 5.64302 14.928 5.39203C15.2516 5.14103 15.609 4.94207 16 4.79515C15.8517 4.34213 15.6629 3.90135 15.4337 3.47282C15.2044 3.04429 14.9415 2.63413 14.6449 2.24233C14.2403 1.69136 13.8055 1.18631 13.3403 0.727169C12.8751 0.268029 12.3054 0.0384597 11.6312 0.0384597C10.9839 0.0139722 10.4682 0.124166 10.0839 0.36904C9.69957 0.613915 9.13661 0.736352 8.39499 0.736352C7.63988 0.736352 7.06681 0.620036 6.67577 0.387406C6.28473 0.154775 5.77908 0.026216 5.15881 0.00172853C4.51158 -0.0227589 3.9385 0.212933 3.43959 0.708803C2.94068 1.20467 2.48222 1.72809 2.06422 2.27906C1.64621 2.84227 1.26192 3.49731 0.91133 4.24418C0.560745 5.00329 0.307918 5.79301 0.152852 6.61334C-0.00221524 7.43367 -0.0392964 8.254 0.041608 9.07433C0.122512 9.9069 0.385452 10.666 0.830426 11.3517C1.03269 11.6822 1.2754 11.9853 1.55857 12.2608C1.84173 12.5362 2.15861 12.7719 2.50919 12.9678C2.87326 13.1637 3.25419 13.3168 3.65197 13.427C4.04975 13.5372 4.45764 13.5984 4.87565 13.6106C5.5094 13.6229 6.11281 13.4943 6.68588 13.2249C7.25895 12.9556 7.74101 12.8209 8.13205 12.8209C8.52309 12.8209 9.05908 12.977 9.74002 13.2892C10.421 13.6014 11.139 13.7208 11.8941 13.6474C12.2447 13.6351 12.5919 13.5861 12.9357 13.5004C13.2796 13.4147 13.6133 13.2984 13.9369 13.1515C14.2471 12.9923 14.5336 12.8056 14.7965 12.5913C15.0595 12.3771 15.2921 12.1353 15.4943 11.8659C15.1707 11.6822 14.8808 11.4649 14.6246 11.2139C14.3684 10.9629 14.1459 10.6905 13.9572 10.3966C13.7684 10.0906 13.6234 9.77222 13.5223 9.44164C13.4212 9.11106 13.3706 8.77436 13.3706 8.43153ZM10.903 15.1166C10.7277 14.9207 10.5288 14.7432 10.3064 14.584C10.0839 14.4248 9.85127 14.2902 9.60855 14.18C9.35236 14.0698 9.08604 13.9871 8.80962 13.932C8.5332 13.8769 8.2534 13.8494 7.97024 13.8494C7.94327 14.3636 8.01743 14.8595 8.19273 15.337C8.36802 15.8145 8.6377 16.2491 9.00177 16.6409C9.37932 17.0205 9.81756 17.3297 10.3165 17.5684C10.8154 17.8072 11.348 17.951 11.9143 18C11.9548 17.4858 11.8874 16.9776 11.7121 16.4757C11.5368 15.9737 11.2671 15.5206 10.903 15.1166Z" fill="var(--fill-0, #202020)"/>
</svg>
