<svg preserveAspectRatio="none" width="100%" height="100%" overflow="visible" style="display: block;" viewBox="0 0 22 20" fill="none" xmlns="http://www.w3.org/2000/svg">
<g id="Solid">
<path fill-rule="evenodd" clip-rule="evenodd" d="M17.0355 12.8768C17.1732 12.3419 17.7183 12.0199 18.2532 12.1576C20.4095 12.7126 22.0039 14.6688 22.0039 17V19C22.0039 19.5523 21.5562 20 21.0039 20C20.4517 20 20.0039 19.5523 20.0039 19V17C20.0039 15.6035 19.0488 14.4275 17.7547 14.0945C17.2198 13.9568 16.8978 13.4116 17.0355 12.8768Z" fill="var(--fill-0, white)"/>
<path fill-rule="evenodd" clip-rule="evenodd" d="M13.577 0.915544C13.7842 0.40361 14.3672 0.156595 14.8792 0.363821C16.7097 1.10481 18.0039 2.90006 18.0039 5C18.0039 7.09994 16.7097 8.89519 14.8792 9.63618C14.3672 9.8434 13.7842 9.59639 13.577 9.08446C13.3698 8.57252 13.6168 7.98953 14.1287 7.7823C15.23 7.33652 16.0039 6.25744 16.0039 5C16.0039 3.74256 15.23 2.66348 14.1287 2.2177C13.6168 2.01047 13.3698 1.42748 13.577 0.915544Z" fill="var(--fill-0, white)"/>
<path fill-rule="evenodd" clip-rule="evenodd" d="M6.18288 12C7.73026 12.0005 9.27763 12.0005 10.825 12C11.9156 11.9996 12.6598 11.9994 13.298 12.1704C15.0235 12.6327 16.3712 13.9804 16.8336 15.7059C17.0638 16.5652 16.9972 17.4836 17.0041 18.3641C17.005 18.471 17.0067 18.6872 16.9528 18.8882C16.8141 19.4059 16.4098 19.8102 15.8922 19.9489C15.6912 20.0028 15.4749 20.001 15.368 20.0002C10.793 19.9637 6.21487 19.9637 1.63985 20.0002C1.53294 20.001 1.31673 20.0028 1.11571 19.9489C0.598076 19.8102 0.193755 19.4059 0.0550543 18.8882C0.00119253 18.6872 0.0029163 18.471 0.00376852 18.3641C0.0107705 17.4858 -0.0555723 16.5639 0.174314 15.7059C0.63665 13.9804 1.98439 12.6327 3.70985 12.1704C4.34806 11.9994 5.09226 11.9996 6.18288 12Z" fill="var(--fill-0, white)"/>
<path fill-rule="evenodd" clip-rule="evenodd" d="M3.50394 5C3.50394 2.23858 5.74252 0 8.50394 0C11.2654 0 13.5039 2.23858 13.5039 5C13.5039 7.76142 11.2654 10 8.50394 10C5.74252 10 3.50394 7.76142 3.50394 5Z" fill="var(--fill-0, white)"/>
</g>
</svg>
