<svg preserveAspectRatio="none" width="100%" height="100%" overflow="visible" style="display: block;" viewBox="0 0 22 22" fill="none" xmlns="http://www.w3.org/2000/svg">
<path id="Solid" d="M10.5342 0C9.81415 0 9.16167 0.424029 8.86925 1.08198L5.50849 8.64368C5.42696 8.82713 5.38438 8.92175 5.34948 8.98835L5.34638 8.99423L5.33975 8.99468C5.26471 8.99952 5.16096 9 4.96021 9L4.16146 9C3.63431 8.99998 3.17955 8.99997 2.80497 9.03057C2.40963 9.06287 2.01641 9.13419 1.63803 9.32698C1.07354 9.6146 0.614603 10.0735 0.326983 10.638C0.134189 11.0164 0.0628731 11.4096 0.0305721 11.805C-3.08603e-05 12.1795 -1.61994e-05 12.6343 7.97061e-07 13.1614V17.8385C-1.61994e-05 18.3657 -3.08584e-05 18.8205 0.0305721 19.195C0.0628731 19.5904 0.134189 19.9836 0.326983 20.362C0.614603 20.9265 1.07354 21.3854 1.63803 21.673C2.01641 21.8658 2.40963 21.9371 2.80497 21.9694C3.17954 22 3.6343 22 4.16144 22C4.62456 22 5 21.6246 5 21.1614L5 13C5 12.4477 5.44772 12 6 12C6.55229 12 7 12.4477 7 13L7 20.4C7 20.9601 7 21.2401 7.10899 21.454C7.20487 21.6422 7.35785 21.7951 7.54601 21.891C7.75992 22 8.03995 22 8.6 22H14.9196C15.6184 22 16.1985 22 16.6758 21.9637C17.1742 21.9257 17.6336 21.8444 18.0771 21.6434C18.7707 21.3291 19.3602 20.8234 19.7763 20.1857C20.0423 19.7779 20.1926 19.3362 20.3059 18.8494C20.4144 18.3832 20.5026 17.8098 20.6088 17.1192L21.1444 13.6377C21.2852 12.7227 21.4006 11.9726 21.4414 11.3604C21.4836 10.7288 21.456 10.1394 21.2405 9.5745C20.9097 8.70708 20.2874 7.98175 19.4804 7.52284C18.9548 7.22398 18.3765 7.10713 17.7458 7.05272C17.1345 6.99997 16.3756 6.99999 15.4498 7H14.6C14.3035 7 14.1412 6.99922 14.0246 6.9897L14.0115 6.98855L14.0103 6.97537C14.0008 6.85878 14 6.69653 14 6.4V3.46584C14 1.55171 12.4483 0 10.5342 0Z" fill="var(--fill-0, white)"/>
</svg>
