<svg preserveAspectRatio="none" width="100%" height="100%" overflow="visible" style="display: block;" viewBox="0 0 23 22" fill="none" xmlns="http://www.w3.org/2000/svg">
<g id="Solid">
<path fill-rule="evenodd" clip-rule="evenodd" d="M16.5354 1.23626C15.5778 0.125371 14.0109 -0.39685 12.4497 0.34816C10.6347 1.21433 9.84096 3.29435 10.6109 5.12146C10.9983 6.04057 12.0462 7.7169 12.7372 8.79052C12.7426 8.79886 12.7479 8.8072 12.7533 8.81554C12.87 8.99686 12.9876 9.17972 13.1023 9.32936C13.2323 9.49892 13.3978 9.68012 13.6327 9.82625C13.9645 10.0327 14.3648 10.14 14.7554 10.1271C15.0319 10.118 15.2658 10.0438 15.4632 9.96195C15.6373 9.88971 15.8306 9.79017 16.0223 9.69148C16.0312 9.68694 16.04 9.6824 16.0488 9.67786C17.184 9.09357 18.9297 8.16579 19.7247 7.56349C21.2936 6.37484 21.6915 4.16817 20.5111 2.49912C19.5176 1.09422 17.918 0.752908 16.5354 1.23626Z" fill="var(--fill-0, white)"/>
<path d="M16.7089 14.8236C16.7089 15.6149 16.1855 16.2841 15.464 16.5078L15.9279 16.4863C16.4349 16.4863 16.9279 16.3269 17.333 16.0307L20.1619 13.9669C20.8679 13.452 21.8561 13.5204 22.4802 14.1275C23.1734 14.8018 23.1734 15.8941 22.4802 16.5672L20.053 18.9284C19.3996 19.5639 18.5659 19.9979 17.6597 20.1744L14.229 20.8419C13.5487 20.974 12.8473 20.9581 12.1741 20.794L9.07119 20.04C8.70002 19.9489 8.31948 19.9033 7.9366 19.9033C7.5301 19.9033 7.32685 19.9033 7.16378 19.8451C6.88133 19.7443 6.65906 19.522 6.55822 19.2396C6.5 19.0765 6.5 18.8732 6.5 18.4668V15.0376C6.5 14.7518 6.5 14.6089 6.5367 14.4772C6.56921 14.3605 6.62265 14.2507 6.69441 14.1531C6.77541 14.043 6.88788 13.9548 7.11281 13.7785L8.2984 12.8489C8.2984 12.8489 10.2632 11.9303 11.3486 11.9303C11.7982 11.9303 12.2455 11.985 12.6822 12.0933L15.3659 12.7604C16.1551 12.956 16.7089 13.6616 16.7089 14.4708V14.8236Z" fill="var(--fill-0, white)"/>
<path fill-rule="evenodd" clip-rule="evenodd" d="M2.47354 11.9303C2.48235 11.9303 2.49117 11.9303 2.5 11.9303C2.50884 11.9303 2.51766 11.9303 2.52648 11.9303C2.73652 11.9303 2.94115 11.9302 3.11523 11.9421C3.3056 11.9551 3.53133 11.9856 3.76537 12.0825C4.25543 12.2855 4.64477 12.6749 4.84776 13.1649C4.94471 13.399 4.97518 13.6247 4.98817 13.8151C5.00005 13.9891 5.00003 14.1938 5.00001 14.4038C5 14.4126 5 14.4215 5 14.4303L5.00001 19.4568C5.00003 19.6668 5.00005 19.8714 4.98817 20.0455C4.97518 20.2359 4.94471 20.4616 4.84776 20.6957C4.64477 21.1857 4.25543 21.5751 3.76537 21.778C3.53133 21.875 3.3056 21.9055 3.11523 21.9185C2.94115 21.9303 2.73653 21.9303 2.52648 21.9303H2.47352C2.26348 21.9303 2.05886 21.9303 1.88478 21.9185C1.6944 21.9055 1.46868 21.875 1.23464 21.778C0.74458 21.5751 0.355232 21.1857 0.152244 20.6957C0.0553006 20.4616 0.024827 20.2359 0.011838 20.0455C-3.96064e-05 19.8714 -1.92219e-05 19.6668 1.75898e-06 19.4568L3.48752e-06 14.4303C3.48752e-06 14.4215 2.59345e-06 14.4126 1.75898e-06 14.4038C-1.92219e-05 14.1938 -3.96064e-05 13.9891 0.011838 13.8151C0.024827 13.6247 0.0553007 13.399 0.152245 13.1649C0.355233 12.6749 0.744581 12.2855 1.23464 12.0825C1.46868 11.9856 1.69441 11.9551 1.88478 11.9421C2.05886 11.9302 2.26349 11.9303 2.47354 11.9303Z" fill="var(--fill-0, white)"/>
</g>
</svg>
