<svg width="16" height="9" viewBox="0 0 16 9" fill="none" xmlns="http://www.w3.org/2000/svg">
<path d="M14.2969 3.06576C15.1302 1.9102 15.5703 1.20135 15.6172 0.939214C15.6641 0.677074 15.7917 0.364111 16 0.000325255H12.8281C12.8281 0.000325255 12.7865 0.13942 12.7031 0.417609C12.6198 0.695799 12.5625 0.872342 12.5312 0.947239C12.375 1.26823 12.1823 1.61596 11.9531 1.99045C11.724 2.36493 11.4792 2.71535 11.2188 3.04168C10.9583 3.36802 10.6979 3.65423 10.4375 3.90033C10.1771 4.13572 9.94271 4.28016 9.73438 4.33366C9.32812 4.42996 9.10938 4.11967 9.07812 3.40279C9.04688 2.68592 9.04688 2.11349 9.07812 1.68551C9.09896 1.28963 9.10938 1.00609 9.10938 0.834893C9.10938 0.6637 9.10417 0.546004 9.09375 0.481807C9.07292 0.374811 9.02604 0.289214 8.95312 0.225017C8.88021 0.160819 8.79688 0.123371 8.70312 0.112671C8.49479 0.0805722 8.21875 0.0511483 7.875 0.0243993C7.53125 -0.00234964 7.15104 -0.00502454 6.73438 0.0163746L6 0.0484734C6.14583 0.380161 6.26823 0.572753 6.36719 0.626251C6.46615 0.679749 6.54167 0.899091 6.59375 1.28428C6.65625 1.73366 6.64844 2.36226 6.57031 3.17008C6.49219 3.9779 6.23438 4.38181 5.79688 4.38181C5.45312 4.38181 5.10417 4.15712 4.75 3.70773C4.40625 3.25835 4.09115 2.76349 3.80469 2.22316C3.51823 1.68284 3.28125 1.18263 3.09375 0.722547C2.91667 0.262465 2.82292 0.0217244 2.8125 0.000325255H0L0.25 0.65835C0.770833 1.9851 1.32292 3.14065 1.90625 4.12502C2.5 5.10938 3.13281 5.9279 3.80469 6.58057C4.47656 7.23325 5.19792 7.73078 5.96875 8.07317C6.73958 8.40485 7.56771 8.59744 8.45312 8.65094L8.92188 8.66699L8.95312 8.20156C8.97396 7.84847 9.07031 7.47131 9.24219 7.07008C9.41406 6.66884 9.65625 6.46823 9.96875 6.46823C10.4167 6.46823 10.7474 6.5458 10.9609 6.70094C11.1745 6.85609 11.4323 7.12625 11.7344 7.51144C12.026 7.87522 12.2995 8.15876 12.5547 8.36205C12.8099 8.56535 13.1719 8.66699 13.6406 8.66699H16L15.6562 7.97687C15.3958 7.43119 15.0521 6.93633 14.625 6.4923C14.1979 6.04827 13.8802 5.68716 13.6719 5.40897C13.599 5.31267 13.5365 5.18695 13.4844 5.03181C13.4323 4.87666 13.4479 4.70279 13.5312 4.5102C13.5938 4.33901 13.7031 4.10362 13.8594 3.80403C14.0156 3.50444 14.1615 3.25835 14.2969 3.06576Z" fill="#59AD3B"/>
</svg>
