<svg width="10" height="14" viewBox="0 0 10 14" fill="none" xmlns="http://www.w3.org/2000/svg">
<path d="M5.00137 2.20597C5.81545 2.20597 6.4776 2.87209 6.4776 3.69104C6.4776 4.50711 5.81545 5.17322 5.00137 5.17322C4.18729 5.17322 3.52513 4.50711 3.52513 3.69104C3.52513 2.87209 4.18729 2.20597 5.00137 2.20597ZM5.00137 7.3792C7.0251 7.3792 8.66759 5.72688 8.66759 3.69104C8.66759 1.6552 7.0251 0 5.00137 0C2.97764 0 1.33228 1.6552 1.33228 3.69104C1.33228 5.724 2.97764 7.3792 5.00137 7.3792ZM6.44321 10.1994C7.16842 10.035 7.86784 9.74665 8.5128 9.33718C9.0001 9.02863 9.14629 8.37981 8.83958 7.8896C8.53287 7.39938 7.88791 7.24943 7.40061 7.56087C5.93871 8.48363 4.06117 8.48363 2.60213 7.56087C2.11196 7.24943 1.46701 7.39938 1.16029 7.8896C0.85358 8.37981 0.99977 9.02863 1.48994 9.33718C2.13203 9.74665 2.83431 10.035 3.55953 10.1994L1.56447 12.2064C1.15743 12.6159 1.15743 13.282 1.56733 13.6915C1.77085 13.8962 2.03743 14 2.30402 14C2.5706 14 2.84005 13.8962 3.04357 13.6915L5.00137 11.7219L6.96204 13.6915C7.36908 14.1009 8.02837 14.1009 8.43827 13.6915C8.84531 13.282 8.84531 12.6159 8.43827 12.2064L6.44321 10.1994Z" fill="#59AD3B"/>
</svg>
