<svg preserveAspectRatio="none" width="100%" height="100%" overflow="visible" style="display: block;" viewBox="0 0 18 18" fill="none" xmlns="http://www.w3.org/2000/svg">
<g id="huawei.svg" clip-path="url(#clip0_0_952)">
<path id="Vector" fill-rule="evenodd" clip-rule="evenodd" d="M12.8134 0.400195H5.38368C1.88095 0.400195 0.599414 1.68173 0.599414 5.18447V12.6196C0.599414 16.1222 1.88095 17.4037 5.38368 17.4037H12.8134C16.316 17.4037 17.5994 16.1222 17.5994 12.6196V5.18447C17.603 1.68173 16.3214 0.400195 12.8134 0.400195ZM3.96634 8.9019H4.41738V11.1267H3.96634V10.2228H2.94792V11.1267H2.49688V8.9019H2.94792V9.79682H3.96634V8.9019ZM6.50792 10.1745C6.50792 10.5325 6.32894 10.7293 6.00319 10.7293C5.67744 10.7293 5.49487 10.5325 5.49487 10.1548V8.9019H5.04383V10.1727C5.04383 10.7974 5.39106 11.1553 5.99603 11.1553C6.601 11.1553 6.95897 10.7974 6.95897 10.153V8.9019H6.50792V10.1745ZM11.2152 8.9019H10.8447L10.3436 10.4322L9.85136 8.9019H9.37169L10.1467 11.1267H10.5208L11.0237 9.66617L11.5285 11.1267H11.9061L12.6811 8.9019H12.2122L11.72 10.4304L11.2152 8.9019ZM13.4884 10.1673H14.3099V9.76462H13.4884V9.31H14.6804V8.9019H13.0445V11.1213H14.7233V10.7204H13.4884V10.1673ZM15.2603 11.1213H15.706V8.9019H15.2603V11.1213ZM7.85032 10.6613L7.64807 11.1231H7.18807L8.15996 8.9019H8.55731L9.53278 11.1231H9.06742L8.8759 10.6631L7.85032 10.6613ZM8.01857 10.2604H8.69692L8.35685 9.46571L8.01857 10.2604ZM7.10063 5.2429C7.63121 5.77348 8.35069 6.07176 9.10104 6.07223C9.8514 6.07176 10.5709 5.77348 11.1015 5.2429C11.632 4.71232 11.9303 3.99283 11.9308 3.24248H11.5317C11.5317 3.88712 11.2756 4.50535 10.8198 4.96118C10.3639 5.41702 9.74568 5.6731 9.10104 5.6731C8.4564 5.6731 7.83817 5.41702 7.38234 4.96118C6.92651 4.50535 6.67043 3.88712 6.67043 3.24248H6.27128C6.27176 3.99283 6.57005 4.71232 7.10063 5.2429Z" fill="var(--fill-0, #D2D2D2)"/>
</g>
<defs>
<clipPath id="clip0_0_952">
<rect width="18" height="18" fill="white"/>
</clipPath>
</defs>
</svg>
