<svg preserveAspectRatio="none" width="100%" height="100%" overflow="visible" style="display: block;" viewBox="0 0 61 61" fill="none" xmlns="http://www.w3.org/2000/svg">
<g id="qr-native.svg" clip-path="url(#clip0_0_550)">
<path id="Vector" d="M61 0H0V61H61V0Z" fill="var(--fill-0, #F1F1F1)"/>
<path id="Vector_2" d="M16.6361 0.635517V0.000100911H15.4229C15.2473 0.000100911 15.0974 0.0620806 14.9735 0.18604C14.8495 0.309999 14.7876 0.459819 14.7876 0.635517V1.84858H16.6361V0.635517Z" fill="var(--fill-0, #202020)"/>
<path id="Vector_3" d="M18.4851 0.000100911H16.6367V1.84858H18.4851V0.000100911Z" fill="var(--fill-0, #202020)"/>
<path id="Vector_4" d="M19.6989 0.000100911H18.4858V1.84858H19.6989C19.8746 1.84858 20.0245 1.78658 20.1485 1.66264C20.2723 1.5387 20.3344 1.38886 20.3344 1.21317V0.635517C20.3344 0.459819 20.2723 0.309981 20.1485 0.18604C20.0245 0.0620991 19.8746 0.000100911 19.6989 0.000100911Z" fill="var(--fill-0, #202020)"/>
<path id="Vector_5" d="M29.5764 1.21317C29.5764 1.3889 29.5144 1.5387 29.3905 1.66264C29.2665 1.78657 29.1167 1.84858 28.941 1.84858H28.3634C28.1877 1.84858 28.0379 1.78657 27.9139 1.66264C27.79 1.5387 27.728 1.3889 27.728 1.21317V0.635517C27.728 0.459837 27.79 0.309999 27.9139 0.186058C28.0379 0.0620991 28.1877 0.000100911 28.3634 0.000100911H28.941C29.1167 0.000100911 29.2666 0.0620806 29.3905 0.18604C29.5144 0.310017 29.5764 0.459837 29.5764 0.635517V1.21317Z" fill="var(--fill-0, #202020)"/>
<path id="Vector_6" d="M33.2729 0.635517V0.000100911H32.0599C31.8842 0.000100911 31.7344 0.0620806 31.6104 0.18604C31.4865 0.309999 31.4245 0.459819 31.4245 0.635517V1.21317C31.4245 1.38886 31.4865 1.5387 31.6104 1.66264C31.7344 1.78658 31.8842 1.84858 32.0599 1.84858H33.2729V0.635517Z" fill="var(--fill-0, #202020)"/>
<path id="Vector_7" d="M35.1205 0.635517C35.1205 0.459819 35.0586 0.309981 34.9346 0.18604C34.8107 0.0620991 34.6608 0.000100911 34.485 0.000100911H33.272V1.84858H35.1205V0.635517Z" fill="var(--fill-0, #202020)"/>
<path id="Vector_8" d="M38.8187 0.635517V0.000100911H37.6056C37.4298 0.000100911 37.28 0.0620806 37.156 0.18604C37.0321 0.309999 36.9701 0.459819 36.9701 0.635517V1.21317C36.9701 1.38886 37.0321 1.5387 37.156 1.66264C37.28 1.78658 37.4298 1.84858 37.6056 1.84858H38.8187V0.635517Z" fill="var(--fill-0, #202020)"/>
<path id="Vector_9" d="M40.0322 0.000100911H38.8192V1.84858H40.0322C40.2079 1.84858 40.3577 1.78658 40.4817 1.66264C40.6056 1.5387 40.6676 1.38886 40.6676 1.21317V0.635517C40.6676 0.459819 40.6056 0.309981 40.4817 0.18604C40.3577 0.0620991 40.2079 0.000100911 40.0322 0.000100911Z" fill="var(--fill-0, #202020)"/>
<path id="Vector_10" d="M44.3641 0.635517V0.000100911H43.1511C42.9754 0.000100911 42.8256 0.0620806 42.7016 0.18604C42.5777 0.309999 42.5157 0.459819 42.5157 0.635517V1.21317C42.5157 1.38886 42.5777 1.5387 42.7016 1.66264C42.8256 1.78658 42.9754 1.84858 43.1511 1.84858H44.3641V0.635517Z" fill="var(--fill-0, #202020)"/>
<path id="Vector_11" d="M46.2117 0.635517C46.2117 0.459819 46.1498 0.309981 46.0258 0.18604C45.9018 0.0620991 45.752 0.000100911 45.5763 0.000100911H44.3632V1.84858H46.2117V0.635517Z" fill="var(--fill-0, #202020)"/>
<path id="Vector_12" d="M16.6361 1.84863H14.7876V3.69712H16.6361V1.84863Z" fill="var(--fill-0, #202020)"/>
<path id="Vector_13" d="M18.4851 1.84863H16.6367V3.69712H18.4851V1.84863Z" fill="var(--fill-0, #202020)"/>
<path id="Vector_14" d="M22.1819 2.48406V1.84863H20.9689C20.7932 1.84863 20.6434 1.91062 20.5194 2.03457C20.3955 2.15854 20.3335 2.30835 20.3335 2.48406V3.0617C20.3335 3.23741 20.3955 3.38724 20.5194 3.51118C20.6434 3.63513 20.7932 3.69712 20.9689 3.69712H22.1819V2.48406Z" fill="var(--fill-0, #202020)"/>
<path id="Vector_15" d="M23.3957 1.84863H22.1826V3.69712H23.3957C23.5715 3.69712 23.7213 3.63513 23.8452 3.51118C23.9692 3.38724 24.0312 3.23741 24.0312 3.0617V2.48406C24.0312 2.30835 23.9692 2.15851 23.8452 2.03457C23.7213 1.91063 23.5715 1.84863 23.3957 1.84863Z" fill="var(--fill-0, #202020)"/>
<path id="Vector_16" d="M35.1169 2.44072H35.1205V1.84863H33.272V2.44072H33.2756C33.2732 2.45999 33.272 2.47442 33.272 2.48406V3.0617C33.272 3.23741 33.334 3.38724 33.4579 3.51118C33.5819 3.63513 33.7317 3.69712 33.9075 3.69712H34.485C34.6608 3.69712 34.8106 3.63513 34.9346 3.51118C35.0585 3.38724 35.1205 3.23741 35.1205 3.0617V2.48406C35.1205 2.47442 35.1193 2.45999 35.1169 2.44072Z" fill="var(--fill-0, #202020)"/>
<path id="Vector_17" d="M46.2118 1.84961H44.3633V3.69809H46.2118V1.84961Z" fill="var(--fill-0, #202020)"/>
<path id="Vector_18" d="M16.6361 3.69629H14.7876V4.90936C14.7876 5.08506 14.8496 5.2349 14.9735 5.35884C15.0975 5.48278 15.2473 5.54478 15.423 5.54478H16.6361V3.69629Z" fill="var(--fill-0, #202020)"/>
<path id="Vector_19" d="M18.4851 3.69629H16.6367V5.54478H18.4851V3.69629Z" fill="var(--fill-0, #202020)"/>
<path id="Vector_20" d="M19.6989 3.69629H18.4858V5.54478H19.6989C19.8746 5.54478 20.0245 5.48278 20.1485 5.35884C20.2723 5.2349 20.3344 5.08506 20.3344 4.90936V4.33171C20.3344 4.15601 20.2723 4.00617 20.1485 3.88223C20.0245 3.75829 19.8746 3.69629 19.6989 3.69629Z" fill="var(--fill-0, #202020)"/>
<path id="Vector_21" d="M27.726 4.33171V3.69629H26.5129C26.3371 3.69629 26.1873 3.75828 26.0634 3.88223C25.9394 4.00619 25.8774 4.15601 25.8774 4.33171V5.54478H27.726V4.33171Z" fill="var(--fill-0, #202020)"/>
<path id="Vector_22" d="M29.5764 3.69629H27.728V5.54478H29.5764V3.69629Z" fill="var(--fill-0, #202020)"/>
<path id="Vector_23" d="M31.4242 3.69629H29.5757V5.54478H31.4242V3.69629Z" fill="var(--fill-0, #202020)"/>
<path id="Vector_24" d="M32.6374 3.69629H31.4243V5.54478H32.6374C32.813 5.54478 32.9629 5.48278 33.0868 5.35884C33.2108 5.2349 33.2727 5.08506 33.2727 4.90936V4.33171C33.2727 4.15601 33.2108 4.00617 33.0868 3.88223C32.9629 3.75829 32.813 3.69629 32.6374 3.69629Z" fill="var(--fill-0, #202020)"/>
<path id="Vector_25" d="M40.6678 4.90936C40.6678 5.0851 40.6058 5.2349 40.4818 5.35884C40.3579 5.48276 40.2082 5.54478 40.0324 5.54478H39.4547C39.279 5.54478 39.1292 5.48276 39.0053 5.35884C38.8813 5.2349 38.8193 5.0851 38.8193 4.90936V4.33171C38.8193 4.15603 38.8813 4.00619 39.0053 3.88225C39.1292 3.75829 39.279 3.69629 39.4547 3.69629H40.0324C40.2082 3.69629 40.358 3.75828 40.4818 3.88223C40.6058 4.00621 40.6678 4.15603 40.6678 4.33171V4.90936Z" fill="var(--fill-0, #202020)"/>
<path id="Vector_26" d="M44.364 4.33171V3.69629H43.151C42.9753 3.69629 42.8255 3.75828 42.7016 3.88223C42.5776 4.00619 42.5156 4.15601 42.5156 4.33171V5.54478H44.364V4.33171Z" fill="var(--fill-0, #202020)"/>
<path id="Vector_27" d="M46.2118 3.69629H44.3633V5.54478H46.2118V3.69629Z" fill="var(--fill-0, #202020)"/>
<path id="Vector_28" d="M25.8799 6.18111V5.5457H24.6668C24.4911 5.5457 24.3413 5.60768 24.2174 5.73164C24.0934 5.85559 24.0314 6.00541 24.0314 6.18111V6.75876C24.0314 6.93446 24.0934 7.0843 24.2174 7.20824C24.3413 7.33218 24.4911 7.39418 24.6668 7.39418H25.8799V6.18111Z" fill="var(--fill-0, #202020)"/>
<path id="Vector_29" d="M27.7259 5.5457H25.8773V7.39418H27.7259V5.5457Z" fill="var(--fill-0, #202020)"/>
<path id="Vector_30" d="M31.424 5.5457H29.5754V7.39418H31.424V5.5457Z" fill="var(--fill-0, #202020)"/>
<path id="Vector_31" d="M35.1205 6.75876C35.1205 6.9345 35.0584 7.0843 34.9346 7.20824C34.8107 7.33216 34.6608 7.39418 34.485 7.39418H33.9075C33.7318 7.39418 33.5819 7.33216 33.458 7.20824C33.334 7.0843 33.272 6.9345 33.272 6.75876V6.18111C33.272 6.00543 33.334 5.85559 33.4579 5.73165C33.582 5.60769 33.7318 5.5457 33.9075 5.5457H34.485C34.6608 5.5457 34.8107 5.60768 34.9346 5.73164C35.0586 5.85562 35.1205 6.00543 35.1205 6.18111V6.75876Z" fill="var(--fill-0, #202020)"/>
<path id="Vector_32" d="M38.8187 6.18111C38.8187 6.00541 38.7567 5.85558 38.6327 5.73164C38.5088 5.60769 38.359 5.5457 38.1832 5.5457H37.6056C37.4298 5.5457 37.28 5.60768 37.156 5.73164C37.0321 5.85559 36.9701 6.00541 36.9701 6.18111V6.75876C36.9701 6.7684 36.9713 6.78285 36.9738 6.80209H36.9701V7.39418H38.8187V6.80209H38.815C38.8174 6.78285 38.8187 6.76841 38.8187 6.75876V6.18111Z" fill="var(--fill-0, #202020)"/>
<path id="Vector_33" d="M42.5152 6.18111V5.5457H41.3021C41.1263 5.5457 40.9765 5.60768 40.8526 5.73164C40.7286 5.85559 40.6666 6.00541 40.6666 6.18111V6.75876C40.6666 6.93446 40.7286 7.0843 40.8526 7.20824C40.9765 7.33218 41.1263 7.39418 41.3021 7.39418H42.5152V6.18111Z" fill="var(--fill-0, #202020)"/>
<path id="Vector_34" d="M44.3641 5.5457H42.5157V7.39418H44.3641V5.5457Z" fill="var(--fill-0, #202020)"/>
<path id="Vector_35" d="M46.2117 5.5457H44.3632V7.39418H45.5763C45.752 7.39418 45.9018 7.33218 46.0258 7.20824C46.1498 7.0843 46.2117 6.93446 46.2117 6.75876V5.5457Z" fill="var(--fill-0, #202020)"/>
<path id="Vector_36" d="M18.4851 8.6076C18.4851 8.78333 18.4232 8.93313 18.2992 9.05707C18.1753 9.181 18.0254 9.24301 17.8498 9.24301H17.2721C17.0964 9.24301 16.9466 9.181 16.8226 9.05707C16.6987 8.93313 16.6367 8.78333 16.6367 8.6076V8.02994C16.6367 7.85426 16.6987 7.70442 16.8226 7.58048C16.9466 7.45653 17.0964 7.39453 17.2721 7.39453H17.8498C18.0254 7.39453 18.1753 7.45651 18.2992 7.58047C18.4232 7.70445 18.4851 7.85426 18.4851 8.02994V8.6076Z" fill="var(--fill-0, #202020)"/>
<path id="Vector_37" d="M22.1819 8.60663C22.1819 8.78235 22.1199 8.93216 21.996 9.0561C21.872 9.18003 21.7222 9.24204 21.5465 9.24204H20.9689C20.7932 9.24204 20.6434 9.18003 20.5194 9.0561C20.3955 8.93216 20.3335 8.78235 20.3335 8.60663V8.02897C20.3335 7.85329 20.3955 7.70345 20.5194 7.57951C20.6434 7.45556 20.7932 7.39355 20.9689 7.39355H21.5465C21.7222 7.39355 21.872 7.45553 21.996 7.5795C22.1199 7.70347 22.1819 7.85329 22.1819 8.02897V8.60663Z" fill="var(--fill-0, #202020)"/>
<path id="Vector_38" d="M27.726 7.39355H25.8774V9.24204H27.726V7.39355Z" fill="var(--fill-0, #202020)"/>
<path id="Vector_39" d="M31.4242 7.39355H29.5757V9.24204H31.4242V7.39355Z" fill="var(--fill-0, #202020)"/>
<path id="Vector_40" d="M33.2727 8.02897C33.2727 7.85328 33.2108 7.70343 33.0868 7.5795C32.9629 7.45556 32.813 7.39355 32.6374 7.39355H31.4243V9.24204H33.2727V8.02897Z" fill="var(--fill-0, #202020)"/>
<path id="Vector_41" d="M38.8188 7.39355H36.9702V9.24204H38.8188V7.39355Z" fill="var(--fill-0, #202020)"/>
<path id="Vector_42" d="M16.6363 9.87765C16.6363 9.70196 16.5742 9.55212 16.4503 9.42818C16.3264 9.30424 16.1764 9.24224 16.0008 9.24224H15.4231C15.2474 9.24224 15.0976 9.30421 14.9736 9.42818C14.8497 9.55213 14.7877 9.70196 14.7877 9.87765V10.4553C14.7877 10.4649 14.7889 10.4794 14.7914 10.4986H14.7877V11.0907H16.6363V10.4986H16.6326C16.635 10.4794 16.6363 10.4649 16.6363 10.4553V9.87765Z" fill="var(--fill-0, #202020)"/>
<path id="Vector_43" d="M27.7259 9.24224H25.8773V11.0907H27.7259V9.24224Z" fill="var(--fill-0, #202020)"/>
<path id="Vector_44" d="M29.5764 9.24224H27.728V11.0907H29.5764V9.24224Z" fill="var(--fill-0, #202020)"/>
<path id="Vector_45" d="M31.424 9.24224H29.5754V11.0907H31.424V9.24224Z" fill="var(--fill-0, #202020)"/>
<path id="Vector_46" d="M33.2729 9.24224H31.4245V11.0907H32.6376C32.8132 11.0907 32.9631 11.0287 33.087 10.9048C33.211 10.7808 33.2729 10.631 33.2729 10.4553V9.24224Z" fill="var(--fill-0, #202020)"/>
<path id="Vector_47" d="M38.8187 9.24224H36.9701V11.0907H38.8187V9.24224Z" fill="var(--fill-0, #202020)"/>
<path id="Vector_48" d="M42.5152 9.87765V9.24224H41.3021C41.1263 9.24224 40.9765 9.30421 40.8526 9.42818C40.7286 9.55213 40.6666 9.70196 40.6666 9.87765V11.0907H42.5152V9.87765Z" fill="var(--fill-0, #202020)"/>
<path id="Vector_49" d="M44.3641 9.24224H42.5157V11.0907H44.3641V9.24224Z" fill="var(--fill-0, #202020)"/>
<path id="Vector_50" d="M46.2117 9.87765C46.2117 9.70196 46.1498 9.55212 46.0258 9.42818C45.9018 9.30424 45.752 9.24224 45.5763 9.24224H44.3632V11.0907H46.2117V9.87765Z" fill="var(--fill-0, #202020)"/>
<path id="Vector_51" d="M16.6361 11.0908H14.7876V12.9394H16.6361V11.0908Z" fill="var(--fill-0, #202020)"/>
<path id="Vector_52" d="M20.3344 11.7262C20.3344 11.5505 20.2723 11.4007 20.1485 11.2768C20.0245 11.1528 19.8746 11.0908 19.6989 11.0908H19.1212C18.9455 11.0908 18.7957 11.1528 18.6718 11.2768C18.5478 11.4007 18.4858 11.5505 18.4858 11.7262V12.3039C18.4858 12.3135 18.4871 12.328 18.4895 12.3472H18.4858V12.9394H20.3344V12.3472H20.3307C20.3332 12.328 20.3344 12.3135 20.3344 12.3039V11.7262Z" fill="var(--fill-0, #202020)"/>
<path id="Vector_53" d="M24.0312 12.3039C24.0312 12.4797 23.9691 12.6295 23.8452 12.7534C23.7213 12.8773 23.5715 12.9394 23.3957 12.9394H22.8181C22.6424 12.9394 22.4925 12.8773 22.3685 12.7534C22.2446 12.6295 22.1826 12.4797 22.1826 12.3039V11.7262C22.1826 11.5506 22.2446 11.4007 22.3685 11.2768C22.4926 11.1528 22.6424 11.0908 22.8181 11.0908H23.3957C23.5715 11.0908 23.7213 11.1528 23.8452 11.2768C23.9692 11.4007 24.0312 11.5506 24.0312 11.7262V12.3039Z" fill="var(--fill-0, #202020)"/>
<path id="Vector_54" d="M27.7223 11.6829H27.726V11.0908H25.8774V11.6829H25.8811C25.8787 11.7022 25.8774 11.7166 25.8774 11.7262V12.3039C25.8774 12.4795 25.9394 12.6295 26.0634 12.7534C26.1873 12.8773 26.3371 12.9394 26.5129 12.9394H27.0905C27.2663 12.9394 27.4161 12.8773 27.5401 12.7534C27.664 12.6295 27.726 12.4795 27.726 12.3039V11.7262C27.726 11.7166 27.7248 11.7022 27.7223 11.6829Z" fill="var(--fill-0, #202020)"/>
<path id="Vector_55" d="M31.4242 11.0908H29.5757V12.9394H31.4242V11.0908Z" fill="var(--fill-0, #202020)"/>
<path id="Vector_56" d="M35.1205 12.3039C35.1205 12.4797 35.0584 12.6295 34.9346 12.7534C34.8106 12.8773 34.6608 12.9394 34.485 12.9394H33.9075C33.7318 12.9394 33.5819 12.8773 33.458 12.7534C33.334 12.6295 33.272 12.4797 33.272 12.3039V11.7262C33.272 11.5506 33.334 11.4007 33.4579 11.2768C33.582 11.1528 33.7318 11.0908 33.9075 11.0908H34.485C34.6608 11.0908 34.8106 11.1528 34.9346 11.2768C35.0585 11.4007 35.1205 11.5506 35.1205 11.7262V12.3039Z" fill="var(--fill-0, #202020)"/>
<path id="Vector_57" d="M38.8151 11.6829H38.8188V11.0908H36.9702V11.6829H36.9739C36.9714 11.7022 36.9702 11.7166 36.9702 11.7262V12.3039C36.9702 12.4795 37.0322 12.6295 37.1561 12.7534C37.2801 12.8773 37.4299 12.9394 37.6057 12.9394H38.1833C38.3591 12.9394 38.5089 12.8773 38.6328 12.7534C38.7568 12.6295 38.8188 12.4795 38.8188 12.3039V11.7262C38.8188 11.7166 38.8175 11.7022 38.8151 11.6829Z" fill="var(--fill-0, #202020)"/>
<path id="Vector_58" d="M42.5114 11.6829H42.515V11.0908H40.6665V11.6829H40.6702C40.6677 11.7022 40.6665 11.7166 40.6665 11.7262V12.3039C40.6665 12.4795 40.7285 12.6295 40.8524 12.7534C40.9764 12.8773 41.1262 12.9394 41.302 12.9394H41.8795C42.0554 12.9394 42.2052 12.8773 42.3291 12.7534C42.4531 12.6295 42.515 12.4795 42.515 12.3039V11.7262C42.515 11.7166 42.5138 11.7022 42.5114 11.6829Z" fill="var(--fill-0, #202020)"/>
<path id="Vector_59" d="M46.2082 11.6829H46.2118V11.0908H44.3633V11.6829H44.3669C44.3645 11.7022 44.3633 11.7166 44.3633 11.7262V12.3039C44.3633 12.4795 44.4254 12.6295 44.5493 12.7534C44.6733 12.8773 44.8231 12.9394 44.9988 12.9394H45.5764C45.7521 12.9394 45.9019 12.8773 46.0259 12.7534C46.1499 12.6295 46.2118 12.4795 46.2118 12.3039V11.7262C46.2118 11.7166 46.2106 11.7022 46.2082 11.6829Z" fill="var(--fill-0, #202020)"/>
<path id="Vector_60" d="M16.6361 12.9394H14.7876V14.7878H16.6361V12.9394Z" fill="var(--fill-0, #202020)"/>
<path id="Vector_61" d="M18.4851 12.9394H16.6367V14.7878H18.4851V12.9394Z" fill="var(--fill-0, #202020)"/>
<path id="Vector_62" d="M20.3344 12.9396H18.4858V14.788H19.6989C19.8746 14.788 20.0245 14.726 20.1485 14.6021C20.2723 14.4781 20.3344 14.3283 20.3344 14.1526V12.9396Z" fill="var(--fill-0, #202020)"/>
<path id="Vector_63" d="M25.8799 13.5749C25.8799 13.3993 25.8179 13.2494 25.6939 13.1255C25.57 13.0015 25.4202 12.9396 25.2445 12.9396H24.6668C24.4911 12.9396 24.3413 13.0015 24.2174 13.1255C24.0934 13.2494 24.0314 13.3993 24.0314 13.5749V14.1526C24.0314 14.1623 24.0327 14.1766 24.035 14.1959H24.0314V14.788H25.8799V14.1959H25.8763C25.8788 14.1766 25.8799 14.1623 25.8799 14.1526V13.5749Z" fill="var(--fill-0, #202020)"/>
<path id="Vector_64" d="M31.424 12.9396H29.5754V14.1526C29.5754 14.3283 29.6374 14.4781 29.7614 14.6021C29.8853 14.726 30.0351 14.788 30.2109 14.788H31.424V12.9396Z" fill="var(--fill-0, #202020)"/>
<path id="Vector_65" d="M32.6376 12.9396H31.4245V14.788H32.6376C32.8132 14.788 32.9631 14.726 33.087 14.6021C33.211 14.4781 33.2729 14.3283 33.2729 14.1526V13.5749C33.2729 13.3993 33.211 13.2494 33.087 13.1255C32.9631 13.0015 32.8132 12.9396 32.6376 12.9396Z" fill="var(--fill-0, #202020)"/>
<path id="Vector_66" d="M40.6676 14.1526C40.6676 14.3283 40.6056 14.4781 40.4817 14.6021C40.3577 14.726 40.208 14.788 40.0322 14.788H39.4545C39.2789 14.788 39.1291 14.726 39.0051 14.6021C38.8811 14.4781 38.8192 14.3283 38.8192 14.1526V13.5749C38.8192 13.3993 38.8811 13.2494 39.0051 13.1255C39.1291 13.0015 39.2789 12.9396 39.4545 12.9396H40.0322C40.208 12.9396 40.3578 13.0015 40.4817 13.1255C40.6056 13.2494 40.6676 13.3993 40.6676 13.5749V14.1526Z" fill="var(--fill-0, #202020)"/>
<path id="Vector_67" d="M44.3641 13.5749C44.3641 13.3993 44.3022 13.2494 44.1782 13.1255C44.0543 13.0015 43.9044 12.9396 43.7288 12.9396H43.1511C42.9754 12.9396 42.8256 13.0015 42.7016 13.1255C42.5777 13.2494 42.5157 13.3993 42.5157 13.5749V14.1526C42.5157 14.1623 42.5169 14.1766 42.5192 14.1959H42.5157V14.788H44.3641V14.1959H44.3606C44.363 14.1766 44.3641 14.1623 44.3641 14.1526V13.5749Z" fill="var(--fill-0, #202020)"/>
<path id="Vector_68" d="M5.54526 15.4235V14.7881H4.33219C4.1565 14.7881 4.00666 14.8501 3.88272 14.974C3.75878 15.098 3.69678 15.2478 3.69678 15.4235V16.0011C3.69678 16.1768 3.75875 16.3267 3.88272 16.4507C4.00667 16.5745 4.1565 16.6366 4.33219 16.6366H5.54526V15.4235Z" fill="var(--fill-0, #202020)"/>
<path id="Vector_69" d="M7.39389 14.7881H5.54541V16.6366H7.39389V14.7881Z" fill="var(--fill-0, #202020)"/>
<path id="Vector_70" d="M9.24155 15.4235C9.24155 15.2478 9.17955 15.098 9.05561 14.974C8.93167 14.8501 8.78183 14.7881 8.60614 14.7881H7.39307V16.6366H9.24155V15.4235Z" fill="var(--fill-0, #202020)"/>
<path id="Vector_71" d="M12.9398 16.0011C12.9398 16.1769 12.8777 16.3267 12.7538 16.4507C12.63 16.5745 12.4801 16.6366 12.3043 16.6366H11.7267C11.551 16.6366 11.4012 16.5745 11.2773 16.4507C11.1533 16.3267 11.0913 16.1769 11.0913 16.0011V15.4235C11.0913 15.2478 11.1533 15.098 11.2772 14.974C11.4012 14.8501 11.551 14.7881 11.7267 14.7881H12.3043C12.4801 14.7881 12.63 14.8501 12.7538 14.974C12.8777 15.098 12.9398 15.2478 12.9398 15.4235V16.0011Z" fill="var(--fill-0, #202020)"/>
<path id="Vector_72" d="M16.6361 14.7881H14.7876V16.0011C14.7876 16.1768 14.8496 16.3267 14.9735 16.4507C15.0975 16.5745 15.2473 16.6366 15.423 16.6366H16.6361V14.7881Z" fill="var(--fill-0, #202020)"/>
<path id="Vector_73" d="M18.4851 14.7881H16.6367V16.6366H17.8498C18.0254 16.6366 18.1753 16.5745 18.2992 16.4507C18.4232 16.3267 18.4851 16.1768 18.4851 16.0011V14.7881Z" fill="var(--fill-0, #202020)"/>
<path id="Vector_74" d="M22.1819 16.0011C22.1819 16.1769 22.1199 16.3267 21.996 16.4507C21.872 16.5745 21.7222 16.6366 21.5465 16.6366H20.9689C20.7932 16.6366 20.6434 16.5745 20.5194 16.4507C20.3955 16.3267 20.3335 16.1769 20.3335 16.0011V15.4235C20.3335 15.2478 20.3955 15.098 20.5194 14.974C20.6434 14.8501 20.7932 14.7881 20.9689 14.7881H21.5465C21.7222 14.7881 21.872 14.8501 21.996 14.974C22.1199 15.098 22.1819 15.2478 22.1819 15.4235V16.0011Z" fill="var(--fill-0, #202020)"/>
<path id="Vector_75" d="M25.8797 14.7881H24.0312V16.6366H25.8797V14.7881Z" fill="var(--fill-0, #202020)"/>
<path id="Vector_76" d="M27.726 14.7881H25.8774V16.6366H27.726V14.7881Z" fill="var(--fill-0, #202020)"/>
<path id="Vector_77" d="M28.9411 14.7881H27.728V16.6366H28.9411C29.1168 16.6366 29.2666 16.5745 29.3905 16.4507C29.5145 16.3267 29.5764 16.1768 29.5764 16.0011V15.4235C29.5764 15.2478 29.5145 15.098 29.3905 14.974C29.2666 14.8501 29.1168 14.7881 28.9411 14.7881Z" fill="var(--fill-0, #202020)"/>
<path id="Vector_78" d="M36.9695 15.4235V14.7881H35.7565C35.5808 14.7881 35.431 14.8501 35.307 14.974C35.1831 15.098 35.1211 15.2478 35.1211 15.4235V16.6366H36.9695V15.4235Z" fill="var(--fill-0, #202020)"/>
<path id="Vector_79" d="M38.8188 15.4235C38.8188 15.2478 38.7568 15.098 38.6328 14.974C38.5089 14.8501 38.3591 14.7881 38.1833 14.7881H36.9702V16.6366H38.8188V15.4235Z" fill="var(--fill-0, #202020)"/>
<path id="Vector_80" d="M42.515 15.4235V14.7881H41.302C41.1262 14.7881 40.9764 14.8501 40.8524 14.974C40.7285 15.098 40.6665 15.2478 40.6665 15.4235V16.6366H42.515V15.4235Z" fill="var(--fill-0, #202020)"/>
<path id="Vector_81" d="M44.364 14.7881H42.5156V16.6366H44.364V14.7881Z" fill="var(--fill-0, #202020)"/>
<path id="Vector_82" d="M46.2118 14.7881H44.3633V16.6366H46.2118V14.7881Z" fill="var(--fill-0, #202020)"/>
<path id="Vector_83" d="M48.0603 14.7881H46.2119V16.6366H48.0603V14.7881Z" fill="var(--fill-0, #202020)"/>
<path id="Vector_84" d="M49.9081 14.7881H48.0596V16.6366H49.9081V14.7881Z" fill="var(--fill-0, #202020)"/>
<path id="Vector_85" d="M51.1217 14.7881H49.9087V16.6366H51.1217C51.2974 16.6366 51.4472 16.5745 51.5712 16.4507C51.6951 16.3267 51.7571 16.1768 51.7571 16.0011V15.4235C51.7571 15.2478 51.6951 15.098 51.5712 14.974C51.4472 14.8501 51.2974 14.7881 51.1217 14.7881Z" fill="var(--fill-0, #202020)"/>
<path id="Vector_86" d="M57.3031 15.4235V14.7881H56.0901C55.9144 14.7881 55.7645 14.8501 55.6405 14.974C55.5167 15.098 55.4546 15.2478 55.4546 15.4235V16.6366H57.3031V15.4235Z" fill="var(--fill-0, #202020)"/>
<path id="Vector_87" d="M59.1503 14.7881H57.3018V16.6366H59.1503V14.7881Z" fill="var(--fill-0, #202020)"/>
<path id="Vector_88" d="M60.9993 15.4235C60.9993 15.2478 60.9373 15.098 60.8134 14.974C60.6894 14.8501 60.5396 14.7881 60.3639 14.7881H59.1509V16.6366H60.9993V15.4235Z" fill="var(--fill-0, #202020)"/>
<path id="Vector_89" d="M1.84846 17.2723C1.84846 17.0966 1.78646 16.9468 1.66252 16.8228C1.53858 16.6989 1.38874 16.6369 1.21305 16.6369H0.635395C0.459697 16.6369 0.309859 16.6989 0.185918 16.8228C0.061977 16.9468 -2.11589e-05 17.0966 -2.11589e-05 17.2723V17.8499C-2.11589e-05 17.8596 0.00118036 17.874 0.00358339 17.8933H-2.11589e-05V18.4853H1.84846V17.8933H1.84486C1.8473 17.874 1.84846 17.8596 1.84846 17.8499V17.2723Z" fill="var(--fill-0, #202020)"/>
<path id="Vector_90" d="M9.24153 16.6369H7.39305V18.4853H9.24153V16.6369Z" fill="var(--fill-0, #202020)"/>
<path id="Vector_91" d="M11.0906 17.2723C11.0906 17.0966 11.0286 16.9468 10.9047 16.8228C10.7807 16.6989 10.6309 16.6369 10.4552 16.6369H9.24211V18.4853H11.0906V17.2723Z" fill="var(--fill-0, #202020)"/>
<path id="Vector_92" d="M25.8799 16.6369H24.0314V18.4853H25.8799V16.6369Z" fill="var(--fill-0, #202020)"/>
<path id="Vector_93" d="M31.424 17.8499C31.424 18.0256 31.3619 18.1754 31.2381 18.2994C31.1141 18.4233 30.9643 18.4853 30.7885 18.4853H30.2109C30.0353 18.4853 29.8853 18.4233 29.7615 18.2994C29.6374 18.1754 29.5754 18.0256 29.5754 17.8499V17.2723C29.5754 17.0966 29.6374 16.9468 29.7614 16.8228C29.8854 16.6989 30.0353 16.6369 30.2109 16.6369H30.7885C30.9643 16.6369 31.1141 16.6989 31.2381 16.8228C31.362 16.9468 31.424 17.0966 31.424 17.2723V17.8499Z" fill="var(--fill-0, #202020)"/>
<path id="Vector_94" d="M36.9695 16.6369H35.121V17.8499C35.121 18.0256 35.183 18.1754 35.307 18.2994C35.4309 18.4233 35.5807 18.4853 35.7564 18.4853H36.9695V16.6369Z" fill="var(--fill-0, #202020)"/>
<path id="Vector_95" d="M38.8187 16.6369H36.9701V18.4853H38.8187V16.6369Z" fill="var(--fill-0, #202020)"/>
<path id="Vector_96" d="M40.6676 16.6369H38.8192V18.4853H40.6676V16.6369Z" fill="var(--fill-0, #202020)"/>
<path id="Vector_97" d="M42.5152 16.6369H40.6666V18.4853H42.5152V16.6369Z" fill="var(--fill-0, #202020)"/>
<path id="Vector_98" d="M44.3641 16.6369H42.5157V18.4853H44.3641V16.6369Z" fill="var(--fill-0, #202020)"/>
<path id="Vector_99" d="M46.2117 16.6369H44.3632V18.4853H46.2117V16.6369Z" fill="var(--fill-0, #202020)"/>
<path id="Vector_100" d="M48.0607 16.6369H46.2122V18.4853H48.0607V16.6369Z" fill="var(--fill-0, #202020)"/>
<path id="Vector_101" d="M49.9083 16.6369H48.0597V18.4853H49.9083V16.6369Z" fill="var(--fill-0, #202020)"/>
<path id="Vector_102" d="M55.4539 17.2723V16.6369H54.2407C54.065 16.6369 53.9152 16.6989 53.7912 16.8228C53.6673 16.9468 53.6053 17.0966 53.6053 17.2723V18.4853H55.4539V17.2723Z" fill="var(--fill-0, #202020)"/>
<path id="Vector_103" d="M57.3029 16.6369H55.4544V18.4853H57.3029V16.6369Z" fill="var(--fill-0, #202020)"/>
<path id="Vector_104" d="M59.1504 16.6369H57.3019V18.4853H59.1504V16.6369Z" fill="var(--fill-0, #202020)"/>
<path id="Vector_105" d="M60.9993 16.6369H59.1509V18.4853H60.364C60.5396 18.4853 60.6895 18.4233 60.8134 18.2994C60.9374 18.1754 60.9993 18.0256 60.9993 17.8499V16.6369Z" fill="var(--fill-0, #202020)"/>
<path id="Vector_106" d="M1.84486 19.0772H1.84846V18.4852H-2.11589e-05V19.0772H0.00358339C0.00118036 19.0965 -2.11589e-05 19.111 -2.11589e-05 19.1205V19.6982C-2.11589e-05 19.8739 0.0619585 20.0238 0.185918 20.1478C0.309877 20.2716 0.459697 20.3337 0.635395 20.3337H1.21305C1.38874 20.3337 1.53858 20.2716 1.66252 20.1478C1.78646 20.0238 1.84846 19.8739 1.84846 19.6982V19.1205C1.84846 19.111 1.8473 19.0965 1.84486 19.0772Z" fill="var(--fill-0, #202020)"/>
<path id="Vector_107" d="M5.545 19.1205C5.545 18.9449 5.483 18.795 5.35906 18.6711C5.23512 18.5471 5.08528 18.4852 4.90959 18.4852H4.33193C4.15624 18.4852 4.0064 18.5471 3.88246 18.6711C3.75852 18.795 3.69652 18.9449 3.69652 19.1205V19.6982C3.69652 19.7078 3.69771 19.7224 3.70011 19.7415H3.69652V20.3337H5.545V19.7415H5.54139C5.54383 19.7224 5.545 19.7078 5.545 19.6982V19.1205Z" fill="var(--fill-0, #202020)"/>
<path id="Vector_108" d="M9.24153 18.4844H7.39305V20.3329H9.24153V18.4844Z" fill="var(--fill-0, #202020)"/>
<path id="Vector_109" d="M11.0906 18.4844H9.24211V20.3329H11.0906V18.4844Z" fill="var(--fill-0, #202020)"/>
<path id="Vector_110" d="M12.3042 18.4844H11.0912V20.3329H12.3042C12.4799 20.3329 12.6298 20.2708 12.7537 20.147C12.8776 20.023 12.9397 19.8731 12.9397 19.6974V19.1197C12.9397 18.9441 12.8776 18.7943 12.7537 18.6703C12.6298 18.5463 12.4799 18.4844 12.3042 18.4844Z" fill="var(--fill-0, #202020)"/>
<path id="Vector_111" d="M20.3344 19.1205V18.4852H19.1212C18.9455 18.4852 18.7957 18.5471 18.6718 18.6711C18.5478 18.795 18.4858 18.9449 18.4858 19.1205V19.6982C18.4858 19.8739 18.5478 20.0238 18.6718 20.1478C18.7957 20.2716 18.9455 20.3337 19.1212 20.3337H20.3344V19.1205Z" fill="var(--fill-0, #202020)"/>
<path id="Vector_112" d="M22.1817 18.4852H20.3333V20.3337H22.1817V18.4852Z" fill="var(--fill-0, #202020)"/>
<path id="Vector_113" d="M24.0309 18.4852H22.1824V20.3337H24.0309V18.4852Z" fill="var(--fill-0, #202020)"/>
<path id="Vector_114" d="M25.8799 18.4844H24.0314V20.3329H25.8799V18.4844Z" fill="var(--fill-0, #202020)"/>
<path id="Vector_115" d="M27.7259 18.4844H25.8773V20.3329H27.7259V18.4844Z" fill="var(--fill-0, #202020)"/>
<path id="Vector_116" d="M28.941 18.4844H27.728V20.3329H28.941C29.1167 20.3329 29.2665 20.2708 29.3905 20.147C29.5144 20.023 29.5764 19.8731 29.5764 19.6974V19.1197C29.5764 18.9441 29.5144 18.7943 29.3905 18.6703C29.2665 18.5463 29.1167 18.4844 28.941 18.4844Z" fill="var(--fill-0, #202020)"/>
<path id="Vector_117" d="M40.6641 19.0772H40.6676V18.4852H38.8192V19.0772H38.8227C38.8204 19.0965 38.8192 19.111 38.8192 19.1205V19.6982C38.8192 19.8739 38.8811 20.0238 39.0051 20.1478C39.1291 20.2716 39.2789 20.3337 39.4545 20.3337H40.0322C40.2079 20.3337 40.3577 20.2716 40.4817 20.1478C40.6056 20.0238 40.6676 19.8739 40.6676 19.6982V19.1205C40.6676 19.111 40.6665 19.0965 40.6641 19.0772Z" fill="var(--fill-0, #202020)"/>
<path id="Vector_118" d="M48.0607 18.4852H46.2122V20.3337H48.0607V18.4852Z" fill="var(--fill-0, #202020)"/>
<path id="Vector_119" d="M49.9083 18.4844H48.0597V20.3329H49.9083V18.4844Z" fill="var(--fill-0, #202020)"/>
<path id="Vector_120" d="M51.1218 18.4852H49.9088V20.3337H51.1218C51.2975 20.3337 51.4473 20.2716 51.5713 20.1478C51.6952 20.0238 51.7572 19.8739 51.7572 19.6982V19.1205C51.7572 18.9449 51.6952 18.795 51.5713 18.6711C51.4473 18.5471 51.2975 18.4852 51.1218 18.4852Z" fill="var(--fill-0, #202020)"/>
<path id="Vector_121" d="M55.4539 18.4852H53.6053V20.3337H55.4539V18.4852Z" fill="var(--fill-0, #202020)"/>
<path id="Vector_122" d="M57.3029 18.4852H55.4544V20.3337H57.3029V18.4852Z" fill="var(--fill-0, #202020)"/>
<path id="Vector_123" d="M59.1504 18.4844H57.3019V20.3329H59.1504V18.4844Z" fill="var(--fill-0, #202020)"/>
<path id="Vector_124" d="M5.54165 20.9251H5.54526V20.333H3.69678V20.9251H3.70038C3.69797 20.9443 3.69678 20.9587 3.69678 20.9684V21.5461C3.69678 21.7217 3.75875 21.8715 3.88272 21.9955C4.00667 22.1195 4.1565 22.1814 4.33219 22.1814H4.90985C5.08554 22.1814 5.23538 22.1195 5.35932 21.9955C5.48326 21.8715 5.54526 21.7217 5.54526 21.5461V20.9684C5.54526 20.9587 5.54409 20.9443 5.54165 20.9251Z" fill="var(--fill-0, #202020)"/>
<path id="Vector_125" d="M9.24155 20.333H7.39307V21.5461C7.39307 21.7217 7.45504 21.8715 7.57901 21.9955C7.70296 22.1195 7.85279 22.1814 8.02848 22.1814H9.24155V20.333Z" fill="var(--fill-0, #202020)"/>
<path id="Vector_126" d="M11.0907 20.333H9.24219V22.1814H11.0907V20.333Z" fill="var(--fill-0, #202020)"/>
<path id="Vector_127" d="M14.7869 20.9684V20.333H13.5739C13.3982 20.333 13.2484 20.395 13.1244 20.5189C13.0005 20.6429 12.9385 20.7927 12.9385 20.9684V21.5461C12.9385 21.7217 13.0005 21.8715 13.1244 21.9955C13.2484 22.1195 13.3982 22.1814 13.5739 22.1814H14.7869V20.9684Z" fill="var(--fill-0, #202020)"/>
<path id="Vector_128" d="M16.6361 20.9684C16.6361 20.7927 16.574 20.6429 16.4502 20.5189C16.3263 20.395 16.1763 20.333 16.0006 20.333H14.7876V22.1814H16.6361V20.9684Z" fill="var(--fill-0, #202020)"/>
<path id="Vector_129" d="M42.515 21.5461C42.515 21.7217 42.4529 21.8715 42.3291 21.9955C42.2052 22.1195 42.0554 22.1814 41.8795 22.1814H41.302C41.1263 22.1814 40.9764 22.1195 40.8524 21.9955C40.7285 21.8715 40.6665 21.7217 40.6665 21.5461V20.9684C40.6665 20.7927 40.7285 20.6429 40.8524 20.5189C40.9765 20.395 41.1263 20.333 41.302 20.333H41.8795C42.0554 20.333 42.2052 20.395 42.3291 20.5189C42.4531 20.6429 42.515 20.7927 42.515 20.9684V21.5461Z" fill="var(--fill-0, #202020)"/>
<path id="Vector_130" d="M48.0603 20.333H46.2119V22.1814H48.0603V20.333Z" fill="var(--fill-0, #202020)"/>
<path id="Vector_131" d="M55.454 20.333H53.6055V21.5461C53.6055 21.7217 53.6674 21.8715 53.7914 21.9955C53.9153 22.1195 54.0652 22.1814 54.2408 22.1814H55.454V20.333Z" fill="var(--fill-0, #202020)"/>
<path id="Vector_132" d="M57.3031 20.333H55.4546V22.1814H57.3031V20.333Z" fill="var(--fill-0, #202020)"/>
<path id="Vector_133" d="M59.1503 20.333H57.3018V22.1814H59.1503V20.333Z" fill="var(--fill-0, #202020)"/>
<path id="Vector_134" d="M1.84848 22.8171V22.1816H0.635416C0.459718 22.1816 0.30988 22.2436 0.185939 22.3676C0.0619982 22.4915 0 22.6413 0 22.8171V23.3947C0 23.5705 0.0619797 23.7203 0.185939 23.8443C0.309898 23.9682 0.459718 24.0302 0.635416 24.0302H1.84848V22.8171Z" fill="var(--fill-0, #202020)"/>
<path id="Vector_135" d="M3.06211 22.1817H1.84904V24.0302H3.06211C3.2378 24.0302 3.38764 23.9683 3.51158 23.8443C3.63552 23.7204 3.69752 23.5706 3.69752 23.3947V22.8172C3.69752 22.6414 3.63552 22.4916 3.51158 22.3676C3.38764 22.2437 3.2378 22.1817 3.06211 22.1817Z" fill="var(--fill-0, #202020)"/>
<path id="Vector_136" d="M7.39406 22.8172C7.39406 22.6414 7.33206 22.4916 7.20812 22.3676C7.08418 22.2437 6.93434 22.1817 6.75865 22.1817H6.18099C6.0053 22.1817 5.85546 22.2437 5.73152 22.3676C5.60758 22.4916 5.54558 22.6414 5.54558 22.8172V23.3947C5.54558 23.4044 5.54677 23.4189 5.54918 23.4382H5.54558V24.0302H7.39406V23.4382H7.39046C7.3929 23.4189 7.39406 23.4044 7.39406 23.3947V22.8172Z" fill="var(--fill-0, #202020)"/>
<path id="Vector_137" d="M11.0906 22.1817H9.24211V23.3947C9.24211 23.5706 9.30409 23.7204 9.42805 23.8443C9.55201 23.9683 9.70183 24.0302 9.87753 24.0302H11.0906V22.1817Z" fill="var(--fill-0, #202020)"/>
<path id="Vector_138" d="M12.3042 22.1817H11.0912V24.0302H12.3042C12.4799 24.0302 12.6298 23.9683 12.7537 23.8443C12.8776 23.7204 12.9397 23.5706 12.9397 23.3947V22.8172C12.9397 22.6414 12.8776 22.4916 12.7537 22.3676C12.6298 22.2437 12.4799 22.1817 12.3042 22.1817Z" fill="var(--fill-0, #202020)"/>
<path id="Vector_139" d="M16.6361 22.1816H14.7876V23.3947C14.7876 23.5705 14.8496 23.7203 14.9735 23.8443C15.0975 23.9682 15.2473 24.0302 15.423 24.0302H16.6361V22.1816Z" fill="var(--fill-0, #202020)"/>
<path id="Vector_140" d="M18.4851 22.1816H16.6367V24.0302H18.4851V22.1816Z" fill="var(--fill-0, #202020)"/>
<path id="Vector_141" d="M20.3344 22.8172C20.3344 22.6414 20.2723 22.4916 20.1485 22.3676C20.0245 22.2437 19.8746 22.1817 19.6989 22.1817H18.4858V24.0302H20.3344V22.8172Z" fill="var(--fill-0, #202020)"/>
<path id="Vector_142" d="M48.0568 22.7737H48.0603V22.1816H46.2119V22.7737H46.2155C46.2131 22.793 46.2119 22.8075 46.2119 22.8171V23.3947C46.2119 23.5705 46.2739 23.7203 46.3978 23.8443C46.5218 23.9682 46.6716 24.0302 46.8473 24.0302H47.425C47.6006 24.0302 47.7505 23.9682 47.8744 23.8443C47.9984 23.7203 48.0603 23.5705 48.0603 23.3947V22.8171C48.0603 22.8075 48.0592 22.793 48.0568 22.7737Z" fill="var(--fill-0, #202020)"/>
<path id="Vector_143" d="M53.6064 23.3947C53.6064 23.5705 53.5444 23.7203 53.4204 23.8443C53.2965 23.9681 53.1467 24.0302 52.971 24.0302H52.3933C52.2176 24.0302 52.0678 23.9681 51.9439 23.8443C51.8199 23.7203 51.7578 23.5705 51.7578 23.3947V22.8171C51.7578 22.6415 51.8198 22.4915 51.9439 22.3676C52.0678 22.2436 52.2176 22.1816 52.3933 22.1816H52.971C53.1467 22.1816 53.2965 22.2436 53.4204 22.3676C53.5444 22.4915 53.6064 22.6415 53.6064 22.8171V23.3947Z" fill="var(--fill-0, #202020)"/>
<path id="Vector_144" d="M59.1467 22.7738H59.1504V22.1817H57.3019V22.7738H57.3055C57.3031 22.793 57.3019 22.8076 57.3019 22.8172V23.3947C57.3019 23.5706 57.3638 23.7204 57.4878 23.8443C57.6117 23.9683 57.7616 24.0302 57.9372 24.0302H58.5149C58.6906 24.0302 58.8405 23.9683 58.9643 23.8443C59.0883 23.7204 59.1504 23.5706 59.1504 23.3947V22.8172C59.1504 22.8076 59.1492 22.793 59.1467 22.7738Z" fill="var(--fill-0, #202020)"/>
<path id="Vector_145" d="M7.39389 24.0303H5.54541V25.2433C5.54541 25.419 5.60739 25.5688 5.73135 25.6928C5.8553 25.8167 6.00513 25.8787 6.18082 25.8787H7.39389V24.0303Z" fill="var(--fill-0, #202020)"/>
<path id="Vector_146" d="M8.60614 24.0303H7.39307V25.8787H8.60614C8.78183 25.8787 8.93167 25.8167 9.05561 25.6928C9.17955 25.5688 9.24155 25.419 9.24155 25.2433V24.6656C9.24155 24.49 9.17955 24.3402 9.05561 24.2162C8.93167 24.0922 8.78183 24.0303 8.60614 24.0303Z" fill="var(--fill-0, #202020)"/>
<path id="Vector_147" d="M18.4851 24.0303H16.6367V25.2433C16.6367 25.419 16.6987 25.5688 16.8226 25.6928C16.9466 25.8167 17.0964 25.8787 17.2721 25.8787H18.4851V24.0303Z" fill="var(--fill-0, #202020)"/>
<path id="Vector_148" d="M20.3344 24.0303H18.4858V25.8787H19.6989C19.8746 25.8787 20.0245 25.8167 20.1485 25.6928C20.2723 25.5688 20.3344 25.419 20.3344 25.2433V24.0303Z" fill="var(--fill-0, #202020)"/>
<path id="Vector_149" d="M42.515 24.6656V24.0303H41.302C41.1262 24.0303 40.9764 24.0922 40.8524 24.2162C40.7285 24.3402 40.6665 24.49 40.6665 24.6656V25.8787H42.515V24.6656Z" fill="var(--fill-0, #202020)"/>
<path id="Vector_150" d="M43.7287 24.0303H42.5156V25.8787H43.7287C43.9044 25.8787 44.0542 25.8167 44.1781 25.6928C44.3021 25.5688 44.364 25.419 44.364 25.2433V24.6656C44.364 24.49 44.3021 24.3402 44.1781 24.2162C44.0542 24.0922 43.9044 24.0303 43.7287 24.0303Z" fill="var(--fill-0, #202020)"/>
<path id="Vector_151" d="M49.9081 24.6656C49.9081 24.49 49.8461 24.3402 49.7222 24.2162C49.5982 24.0922 49.4484 24.0303 49.2727 24.0303H48.6951C48.5194 24.0303 48.3694 24.0922 48.2456 24.2162C48.1217 24.3402 48.0596 24.49 48.0596 24.6656V25.2433C48.0596 25.253 48.0608 25.2674 48.0632 25.2866H48.0596V25.8787H49.9081V25.2866H49.9045C49.9069 25.2674 49.9081 25.253 49.9081 25.2433V24.6656Z" fill="var(--fill-0, #202020)"/>
<path id="Vector_152" d="M55.454 24.6666C55.454 24.4909 55.3919 24.3411 55.268 24.2172C55.1441 24.0932 54.9942 24.0312 54.8185 24.0312H54.2408C54.0652 24.0312 53.9153 24.0932 53.7914 24.2172C53.6674 24.3411 53.6055 24.4909 53.6055 24.6666V25.2443C53.6055 25.2539 53.6067 25.2683 53.6091 25.2876H53.6055V25.8797H55.454V25.2876H55.4503C55.4528 25.2683 55.454 25.2539 55.454 25.2443V24.6666Z" fill="var(--fill-0, #202020)"/>
<path id="Vector_153" d="M60.9993 25.2433C60.9993 25.419 60.9373 25.5688 60.8134 25.6928C60.6894 25.8167 60.5396 25.8787 60.3639 25.8787H59.7863C59.6106 25.8787 59.4608 25.8167 59.3368 25.6928C59.2129 25.5688 59.1509 25.419 59.1509 25.2433V24.6656C59.1509 24.49 59.2129 24.3402 59.3368 24.2162C59.4608 24.0922 59.6106 24.0303 59.7863 24.0303H60.3639C60.5396 24.0303 60.6894 24.0922 60.8134 24.2162C60.9373 24.3402 60.9993 24.49 60.9993 24.6656V25.2433Z" fill="var(--fill-0, #202020)"/>
<path id="Vector_154" d="M5.54515 27.0919C5.54515 27.2677 5.48313 27.4175 5.35921 27.5414C5.23527 27.6653 5.08546 27.7274 4.90973 27.7274H4.33208C4.1564 27.7274 4.00656 27.6653 3.88262 27.5414C3.75866 27.4175 3.69666 27.2677 3.69666 27.0919V26.5143C3.69666 26.3387 3.75864 26.1887 3.8826 26.0648C4.00658 25.9408 4.1564 25.8788 4.33208 25.8788H4.90973C5.08549 25.8788 5.2353 25.9408 5.35921 26.0648C5.48315 26.1888 5.54515 26.3387 5.54515 26.5143V27.0919Z" fill="var(--fill-0, #202020)"/>
<path id="Vector_155" d="M12.9397 26.5145V25.879H11.7266C11.5509 25.879 11.4011 25.941 11.2771 26.065C11.1532 26.1889 11.0912 26.3387 11.0912 26.5145V27.0921C11.0912 27.2679 11.1532 27.4177 11.2771 27.5416C11.4011 27.6656 11.5509 27.7276 11.7266 27.7276H12.9397V26.5145Z" fill="var(--fill-0, #202020)"/>
<path id="Vector_156" d="M14.1517 25.879H12.9387V27.7276H14.1517C14.3274 27.7276 14.4772 27.6656 14.6011 27.5416C14.7251 27.4177 14.7871 27.2679 14.7871 27.0921V26.5145C14.7871 26.3387 14.7251 26.1889 14.6011 26.065C14.4772 25.941 14.3274 25.879 14.1517 25.879Z" fill="var(--fill-0, #202020)"/>
<path id="Vector_157" d="M42.5152 25.879H40.6666V27.7276H42.5152V25.879Z" fill="var(--fill-0, #202020)"/>
<path id="Vector_158" d="M49.9083 25.879H48.0597V27.7276H49.9083V25.879Z" fill="var(--fill-0, #202020)"/>
<path id="Vector_159" d="M55.4502 26.4711H55.4539V25.879H53.6053V26.4711H53.609C53.6065 26.4904 53.6053 26.5049 53.6053 26.5145V27.0921C53.6053 27.2679 53.6673 27.4177 53.7912 27.5416C53.9152 27.6656 54.065 27.7276 54.2407 27.7276H54.8184C54.994 27.7276 55.144 27.6656 55.2678 27.5416C55.3918 27.4177 55.4539 27.2679 55.4539 27.0921V26.5145C55.4539 26.5049 55.4526 26.4904 55.4502 26.4711Z" fill="var(--fill-0, #202020)"/>
<path id="Vector_160" d="M59.1504 26.5145C59.1504 26.3387 59.0883 26.1889 58.9643 26.065C58.8405 25.941 58.6906 25.879 58.5149 25.879H57.9372C57.7616 25.879 57.6117 25.941 57.4878 26.065C57.3638 26.1889 57.3019 26.3387 57.3019 26.5145V27.0921C57.3019 27.1017 57.3031 27.1162 57.3055 27.1355H57.3019V27.7276H59.1504V27.1355H59.1467C59.1492 27.1162 59.1504 27.1017 59.1504 27.0921V26.5145Z" fill="var(--fill-0, #202020)"/>
<path id="Vector_161" d="M1.84846 28.3629C1.84846 28.1872 1.78646 28.0374 1.66252 27.9134C1.53858 27.7895 1.38874 27.7275 1.21305 27.7275H0.635395C0.459697 27.7275 0.309859 27.7895 0.185918 27.9134C0.061977 28.0374 -2.11589e-05 28.1872 -2.11589e-05 28.3629V28.9405C-2.11589e-05 28.9502 0.00118036 28.9646 0.00358339 28.9839H-2.11589e-05V29.5759H1.84846V28.9839H1.84486C1.8473 28.9646 1.84846 28.9502 1.84846 28.9405V28.3629Z" fill="var(--fill-0, #202020)"/>
<path id="Vector_162" d="M7.39406 28.3627V27.7273H6.18099C6.0053 27.7273 5.85546 27.7893 5.73152 27.9132C5.60758 28.0372 5.54558 28.187 5.54558 28.3627V29.5757H7.39406V28.3627Z" fill="var(--fill-0, #202020)"/>
<path id="Vector_163" d="M9.24153 27.7273H7.39305V29.5757H9.24153V27.7273Z" fill="var(--fill-0, #202020)"/>
<path id="Vector_164" d="M11.0906 28.3627C11.0906 28.187 11.0286 28.0372 10.9047 27.9132C10.7807 27.7893 10.6309 27.7273 10.4552 27.7273H9.24211V29.5757H11.0906V28.3627Z" fill="var(--fill-0, #202020)"/>
<path id="Vector_165" d="M18.4851 28.3629V27.7275H17.2721C17.0964 27.7275 16.9466 27.7895 16.8227 27.9134C16.6987 28.0374 16.6367 28.1872 16.6367 28.3629V28.9405C16.6367 29.1162 16.6987 29.266 16.8227 29.39C16.9466 29.5139 17.0964 29.5759 17.2721 29.5759H18.4851V28.3629Z" fill="var(--fill-0, #202020)"/>
<path id="Vector_166" d="M19.6989 27.7273H18.4858V29.5757H19.6989C19.8746 29.5757 20.0245 29.5137 20.1485 29.3898C20.2723 29.2658 20.3344 29.116 20.3344 28.9403V28.3627C20.3344 28.187 20.2723 28.0372 20.1485 27.9132C20.0245 27.7893 19.8746 27.7273 19.6989 27.7273Z" fill="var(--fill-0, #202020)"/>
<path id="Vector_167" d="M42.5115 28.3194H42.5152V27.7273H40.6666V28.3194H40.6703C40.6679 28.3386 40.6666 28.353 40.6666 28.3627V28.9403C40.6666 29.116 40.7286 29.2658 40.8526 29.3898C40.9765 29.5137 41.1263 29.5757 41.3021 29.5757H41.8797C42.0555 29.5757 42.2053 29.5137 42.3293 29.3898C42.4532 29.2658 42.5152 29.116 42.5152 28.9403V28.3627C42.5152 28.353 42.514 28.3386 42.5115 28.3194Z" fill="var(--fill-0, #202020)"/>
<path id="Vector_168" d="M48.0605 28.3629V27.7275H46.8475C46.6718 27.7275 46.522 27.7895 46.398 27.9134C46.2741 28.0374 46.2121 28.1872 46.2121 28.3629V29.5759H48.0605V28.3629Z" fill="var(--fill-0, #202020)"/>
<path id="Vector_169" d="M49.9083 27.7273H48.0597V29.5757H49.9083V27.7273Z" fill="var(--fill-0, #202020)"/>
<path id="Vector_170" d="M51.7572 28.3627C51.7572 28.187 51.6952 28.0372 51.5713 27.9132C51.4473 27.7893 51.2975 27.7273 51.1218 27.7273H49.9088V29.5757H51.7572V28.3627Z" fill="var(--fill-0, #202020)"/>
<path id="Vector_171" d="M57.303 28.3629V27.7275H56.09C55.9143 27.7275 55.7644 27.7895 55.6404 27.9134C55.5166 28.0374 55.4545 28.1872 55.4545 28.3629V28.9405C55.4545 29.1162 55.5165 29.266 55.6404 29.39C55.7645 29.5139 55.9143 29.5759 56.09 29.5759H57.303V28.3629Z" fill="var(--fill-0, #202020)"/>
<path id="Vector_172" d="M59.1504 27.7273H57.3019V29.5757H59.1504V27.7273Z" fill="var(--fill-0, #202020)"/>
<path id="Vector_173" d="M60.9993 28.3627C60.9993 28.187 60.9374 28.0372 60.8134 27.9132C60.6895 27.7893 60.5396 27.7273 60.364 27.7273H59.1509V29.5757H60.9993V28.3627Z" fill="var(--fill-0, #202020)"/>
<path id="Vector_174" d="M1.84848 29.5752H0V31.4237H1.84848V29.5752Z" fill="var(--fill-0, #202020)"/>
<path id="Vector_175" d="M5.54477 30.2107V29.5752H4.3317C4.15601 29.5752 4.00617 29.6372 3.88223 29.7611C3.75829 29.8851 3.69629 30.0349 3.69629 30.2107V31.4237H5.54477V30.2107Z" fill="var(--fill-0, #202020)"/>
<path id="Vector_176" d="M7.39389 29.5752H5.54541V31.4237H7.39389V29.5752Z" fill="var(--fill-0, #202020)"/>
<path id="Vector_177" d="M9.24155 29.5752H7.39307V31.4237H9.24155V29.5752Z" fill="var(--fill-0, #202020)"/>
<path id="Vector_178" d="M11.0907 29.5752H9.24219V31.4237H11.0907V29.5752Z" fill="var(--fill-0, #202020)"/>
<path id="Vector_179" d="M12.9398 29.5752H11.0913V31.4237H12.9398V29.5752Z" fill="var(--fill-0, #202020)"/>
<path id="Vector_180" d="M14.7869 29.5752H12.9385V31.4237H14.7869V29.5752Z" fill="var(--fill-0, #202020)"/>
<path id="Vector_181" d="M16.0006 29.5752H14.7876V31.4237H16.0006C16.1763 31.4237 16.3263 31.3618 16.4502 31.2378C16.574 31.1139 16.6361 30.964 16.6361 30.7882V30.2107C16.6361 30.0349 16.574 29.8851 16.4502 29.7611C16.3263 29.6372 16.1763 29.5752 16.0006 29.5752Z" fill="var(--fill-0, #202020)"/>
<path id="Vector_182" d="M48.0573 30.1673H48.0608V29.5752H46.2124V30.1673H46.2159C46.2136 30.1865 46.2124 30.2011 46.2124 30.2107V30.7882C46.2124 30.964 46.2744 31.1139 46.3983 31.2378C46.5223 31.3618 46.6721 31.4237 46.8478 31.4237H47.4254C47.6011 31.4237 47.7509 31.3618 47.8749 31.2378C47.9989 31.1139 48.0608 30.964 48.0608 30.7882V30.2107C48.0608 30.2011 48.0597 30.1865 48.0573 30.1673Z" fill="var(--fill-0, #202020)"/>
<path id="Vector_183" d="M51.7571 29.5752H49.9087V30.7882C49.9087 30.964 49.9707 31.1139 50.0946 31.2378C50.2186 31.3618 50.3684 31.4237 50.5441 31.4237H51.7571V29.5752Z" fill="var(--fill-0, #202020)"/>
<path id="Vector_184" d="M53.6064 29.5752H51.7578V31.4237H53.6064V29.5752Z" fill="var(--fill-0, #202020)"/>
<path id="Vector_185" d="M54.8185 29.5752H53.6055V31.4237H54.8185C54.9942 31.4237 55.1441 31.3618 55.268 31.2378C55.3919 31.1139 55.454 30.964 55.454 30.7882V30.2107C55.454 30.0349 55.3919 29.8851 55.268 29.7611C55.1441 29.6372 54.9942 29.5752 54.8185 29.5752Z" fill="var(--fill-0, #202020)"/>
<path id="Vector_186" d="M59.1503 29.5752H57.3018V30.7882C57.3018 30.964 57.3637 31.1139 57.4877 31.2378C57.6116 31.3618 57.7615 31.4237 57.9371 31.4237H59.1503V29.5752Z" fill="var(--fill-0, #202020)"/>
<path id="Vector_187" d="M60.9993 29.5752H59.1509V31.4237H60.9993V29.5752Z" fill="var(--fill-0, #202020)"/>
<path id="Vector_188" d="M1.84846 31.4246H-2.11589e-05V33.2731H1.84846V31.4246Z" fill="var(--fill-0, #202020)"/>
<path id="Vector_189" d="M5.54139 32.0167H5.545V31.4246H3.69652V32.0167H3.70011C3.69771 32.036 3.69652 32.0504 3.69652 32.06V32.6377C3.69652 32.8134 3.75849 32.9632 3.88246 33.0871C4.00641 33.2111 4.15624 33.2731 4.33193 33.2731H4.90959C5.08528 33.2731 5.23512 33.2111 5.35906 33.0871C5.483 32.9632 5.545 32.8134 5.545 32.6377V32.06C5.545 32.0504 5.54383 32.036 5.54139 32.0167Z" fill="var(--fill-0, #202020)"/>
<path id="Vector_190" d="M11.0906 31.4246H9.24211V33.2731H11.0906V31.4246Z" fill="var(--fill-0, #202020)"/>
<path id="Vector_191" d="M14.7835 32.0167H14.7871V31.4246H12.9387V32.0167H12.9422C12.9397 32.036 12.9387 32.0504 12.9387 32.06V32.6377C12.9387 32.8134 13.0006 32.9632 13.1246 33.0871C13.2485 33.2111 13.3983 33.2731 13.574 33.2731H14.1517C14.3274 33.2731 14.4772 33.2111 14.6011 33.0871C14.7251 32.9632 14.7871 32.8134 14.7871 32.6377V32.06C14.7871 32.0504 14.786 32.036 14.7835 32.0167Z" fill="var(--fill-0, #202020)"/>
<path id="Vector_192" d="M44.3641 32.06V31.4246H43.1511C42.9754 31.4246 42.8256 31.4866 42.7016 31.6106C42.5777 31.7345 42.5157 31.8843 42.5157 32.06V32.6377C42.5157 32.8134 42.5777 32.9632 42.7016 33.0871C42.8256 33.2111 42.9754 33.2731 43.1511 33.2731H44.3641V32.06Z" fill="var(--fill-0, #202020)"/>
<path id="Vector_193" d="M49.9083 32.6377C49.9083 32.8134 49.8463 32.9632 49.7223 33.0871C49.5984 33.2111 49.4486 33.2731 49.2729 33.2731H48.6952C48.5195 33.2731 48.3697 33.2111 48.2458 33.0871C48.1218 32.9632 48.0597 32.8134 48.0597 32.6377V32.06C48.0597 31.8843 48.1217 31.7345 48.2458 31.6106C48.3697 31.4866 48.5195 31.4246 48.6952 31.4246H49.2729C49.4486 31.4246 49.5984 31.4866 49.7223 31.6106C49.8463 31.7345 49.9083 31.8843 49.9083 32.06V32.6377Z" fill="var(--fill-0, #202020)"/>
<path id="Vector_194" d="M60.9958 32.0167H60.9993V31.4246H59.1509V32.0167H59.1545C59.152 32.036 59.1509 32.0504 59.1509 32.06V32.6377C59.1509 32.8134 59.2129 32.9632 59.3368 33.0871C59.4608 33.2111 59.6106 33.2731 59.7863 33.2731H60.364C60.5396 33.2731 60.6895 33.2111 60.8134 33.0871C60.9374 32.9632 60.9993 32.8134 60.9993 32.6377V32.06C60.9993 32.0504 60.9982 32.036 60.9958 32.0167Z" fill="var(--fill-0, #202020)"/>
<path id="Vector_195" d="M1.84486 33.8648H1.84846V33.2727H-2.11589e-05V33.8648H0.00358339C0.00118036 33.884 -2.11589e-05 33.8986 -2.11589e-05 33.9082V34.4857C-2.11589e-05 34.6616 0.0619585 34.8114 0.185918 34.9353C0.309877 35.0593 0.459697 35.1212 0.635395 35.1212H1.21305C1.38874 35.1212 1.53858 35.0593 1.66252 34.9353C1.78646 34.8114 1.84846 34.6616 1.84846 34.4857V33.9082C1.84846 33.8986 1.8473 33.884 1.84486 33.8648Z" fill="var(--fill-0, #202020)"/>
<path id="Vector_196" d="M9.24155 33.908V33.2725H8.02848C7.85279 33.2725 7.70295 33.3344 7.57901 33.4584C7.45507 33.5823 7.39307 33.7322 7.39307 33.908V35.121H9.24155V33.908Z" fill="var(--fill-0, #202020)"/>
<path id="Vector_197" d="M11.0907 33.2725H9.24219V35.121H11.0907V33.2725Z" fill="var(--fill-0, #202020)"/>
<path id="Vector_198" d="M12.3043 33.2725H11.0913V35.121H12.3043C12.48 35.121 12.63 35.059 12.7538 34.9351C12.8777 34.8111 12.9398 34.6613 12.9398 34.4855V33.908C12.9398 33.7322 12.8777 33.5823 12.7538 33.4584C12.63 33.3344 12.48 33.2725 12.3043 33.2725Z" fill="var(--fill-0, #202020)"/>
<path id="Vector_199" d="M20.3344 33.908C20.3344 33.7322 20.2723 33.5823 20.1485 33.4584C20.0245 33.3344 19.8746 33.2725 19.6989 33.2725H19.1212C18.9455 33.2725 18.7957 33.3344 18.6718 33.4584C18.5478 33.5823 18.4858 33.7322 18.4858 33.908V34.4855C18.4858 34.4951 18.4871 34.5097 18.4895 34.5289H18.4858V35.121H20.3344V34.5289H20.3307C20.3332 34.5097 20.3344 34.4953 20.3344 34.4855V33.908Z" fill="var(--fill-0, #202020)"/>
<path id="Vector_200" d="M42.515 33.908C42.515 33.7322 42.4531 33.5823 42.3291 33.4584C42.2052 33.3344 42.0554 33.2725 41.8795 33.2725H41.302C41.1262 33.2725 40.9764 33.3344 40.8524 33.4584C40.7285 33.5823 40.6665 33.7322 40.6665 33.908V34.4855C40.6665 34.4951 40.6677 34.5097 40.6702 34.5289H40.6665V35.121H42.515V34.5289H42.5114C42.5138 34.5097 42.515 34.4953 42.515 34.4855V33.908Z" fill="var(--fill-0, #202020)"/>
<path id="Vector_201" d="M53.6063 34.4857C53.6063 34.6616 53.5444 34.8114 53.4204 34.9353C53.2965 35.0591 53.1466 35.1212 52.971 35.1212H52.3933C52.2176 35.1212 52.0678 35.0591 51.9438 34.9353C51.8199 34.8114 51.7578 34.6616 51.7578 34.4857V33.9082C51.7578 33.7325 51.8198 33.5826 51.9438 33.4588C52.0678 33.3347 52.2176 33.2727 52.3933 33.2727H52.971C53.1466 33.2727 53.2965 33.3347 53.4204 33.4586C53.5444 33.5827 53.6063 33.7325 53.6063 33.9082V34.4857Z" fill="var(--fill-0, #202020)"/>
<path id="Vector_202" d="M57.303 33.9082C57.303 33.7324 57.241 33.5826 57.1171 33.4586C56.9931 33.3347 56.8433 33.2727 56.6676 33.2727H56.09C55.9143 33.2727 55.7644 33.3347 55.6404 33.4586C55.5166 33.5826 55.4545 33.7324 55.4545 33.9082V34.4857C55.4545 34.4954 55.4557 34.5099 55.4581 34.5292H55.4545V35.1212H57.303V34.5292H57.2994C57.3018 34.5099 57.303 34.4955 57.303 34.4857V33.9082Z" fill="var(--fill-0, #202020)"/>
<path id="Vector_203" d="M7.39406 35.7565V35.1212H6.18099C6.0053 35.1212 5.85546 35.1831 5.73152 35.3071C5.60758 35.4311 5.54558 35.5809 5.54558 35.7565V36.3342C5.54558 36.5099 5.60755 36.6597 5.73152 36.7837C5.85547 36.9076 6.0053 36.9696 6.18099 36.9696H7.39406V35.7565Z" fill="var(--fill-0, #202020)"/>
<path id="Vector_204" d="M9.24153 35.1212H7.39305V36.9696H8.60612C8.78181 36.9696 8.93165 36.9076 9.05559 36.7837C9.17953 36.6597 9.24153 36.5099 9.24153 36.3342V35.1212Z" fill="var(--fill-0, #202020)"/>
<path id="Vector_205" d="M16.6361 35.7565C16.6361 35.5809 16.574 35.4311 16.4502 35.3071C16.3262 35.1831 16.1763 35.1212 16.0006 35.1212H15.4229C15.2473 35.1212 15.0974 35.1831 14.9735 35.3071C14.8495 35.4311 14.7876 35.5809 14.7876 35.7565V36.3342C14.7876 36.3439 14.7888 36.3583 14.7912 36.3775H14.7876V36.9696H16.6361V36.3775H16.6324C16.6349 36.3583 16.6361 36.3439 16.6361 36.3342V35.7565Z" fill="var(--fill-0, #202020)"/>
<path id="Vector_206" d="M20.3344 35.1212H18.4858V36.9696H20.3344V35.1212Z" fill="var(--fill-0, #202020)"/>
<path id="Vector_207" d="M42.5152 35.1212H40.6666V36.9696H42.5152V35.1212Z" fill="var(--fill-0, #202020)"/>
<path id="Vector_208" d="M44.3641 35.1212H42.5157V36.9696H44.3641V35.1212Z" fill="var(--fill-0, #202020)"/>
<path id="Vector_209" d="M46.2117 35.7565C46.2117 35.5809 46.1498 35.4311 46.0258 35.3071C45.9018 35.1831 45.752 35.1212 45.5763 35.1212H44.3632V36.9696H46.2117V35.7565Z" fill="var(--fill-0, #202020)"/>
<path id="Vector_210" d="M51.7572 35.7565C51.7572 35.5809 51.6952 35.4311 51.5713 35.3071C51.4473 35.1831 51.2975 35.1212 51.1218 35.1212H50.5442C50.3685 35.1212 50.2187 35.1831 50.0947 35.3071C49.9708 35.4311 49.9088 35.5809 49.9088 35.7565V36.3342C49.9088 36.3439 49.91 36.3583 49.9123 36.3775H49.9088V36.9696H51.7572V36.3775H51.7537C51.7561 36.3583 51.7572 36.3439 51.7572 36.3342V35.7565Z" fill="var(--fill-0, #202020)"/>
<path id="Vector_211" d="M55.4539 35.7565V35.1212H54.2407C54.065 35.1212 53.9152 35.1831 53.7912 35.3071C53.6673 35.4311 53.6053 35.5809 53.6053 35.7565V36.9696H55.4539V35.7565Z" fill="var(--fill-0, #202020)"/>
<path id="Vector_212" d="M57.303 35.1212H55.4545V36.9696H57.303V35.1212Z" fill="var(--fill-0, #202020)"/>
<path id="Vector_213" d="M59.1504 35.7565C59.1504 35.5809 59.0883 35.4311 58.9643 35.3071C58.8405 35.1831 58.6906 35.1212 58.5149 35.1212H57.3019V36.9696H59.1504V35.7565Z" fill="var(--fill-0, #202020)"/>
<path id="Vector_214" d="M1.84848 37.6052C1.84848 37.4294 1.78648 37.2796 1.66254 37.1557C1.5386 37.0317 1.38876 36.9697 1.21307 36.9697H0.635416C0.459718 36.9697 0.30988 37.0317 0.185939 37.1557C0.0619982 37.2796 0 37.4294 0 37.6052V38.1828C0 38.1924 0.00120151 38.2069 0.00360455 38.2262H0V38.8183H1.84848V38.2262H1.84488C1.84732 38.2069 1.84848 38.1925 1.84848 38.1828V37.6052Z" fill="var(--fill-0, #202020)"/>
<path id="Vector_215" d="M11.0907 37.6062V36.9707H9.8776C9.70191 36.9707 9.55207 37.0327 9.42813 37.1566C9.30419 37.2806 9.24219 37.4304 9.24219 37.6062V38.1837C9.24219 38.3596 9.30416 38.5094 9.42813 38.6333C9.55208 38.7573 9.70191 38.8192 9.8776 38.8192H11.0907V37.6062Z" fill="var(--fill-0, #202020)"/>
<path id="Vector_216" d="M12.3043 36.9707H11.0913V38.8192H12.3043C12.48 38.8192 12.63 38.7573 12.7538 38.6333C12.8777 38.5094 12.9398 38.3596 12.9398 38.1837V37.6062C12.9398 37.4304 12.8777 37.2806 12.7538 37.1566C12.63 37.0327 12.48 36.9707 12.3043 36.9707Z" fill="var(--fill-0, #202020)"/>
<path id="Vector_217" d="M16.6361 36.9697H14.7876V38.1828C14.7876 38.3586 14.8496 38.5084 14.9735 38.6323C15.0975 38.7563 15.2473 38.8183 15.423 38.8183H16.6361V36.9697Z" fill="var(--fill-0, #202020)"/>
<path id="Vector_218" d="M18.4851 36.9697H16.6367V38.8183H18.4851V36.9697Z" fill="var(--fill-0, #202020)"/>
<path id="Vector_219" d="M20.3344 36.9697H18.4858V38.8183H19.6989C19.8746 38.8183 20.0245 38.7563 20.1485 38.6323C20.2723 38.5084 20.3344 38.3586 20.3344 38.1828V36.9697Z" fill="var(--fill-0, #202020)"/>
<path id="Vector_220" d="M42.515 36.9707H40.6665V38.8192H42.515V36.9707Z" fill="var(--fill-0, #202020)"/>
<path id="Vector_221" d="M46.2118 36.9707H44.3633V38.8192H46.2118V36.9707Z" fill="var(--fill-0, #202020)"/>
<path id="Vector_222" d="M48.0608 37.6052C48.0608 37.4294 47.9989 37.2796 47.8749 37.1557C47.7509 37.0317 47.6011 36.9697 47.4254 36.9697H46.2124V38.8183H48.0608V37.6052Z" fill="var(--fill-0, #202020)"/>
<path id="Vector_223" d="M51.7571 36.9697H49.9087V38.8183H51.7571V36.9697Z" fill="var(--fill-0, #202020)"/>
<path id="Vector_224" d="M53.6064 36.9697H51.7578V38.8183H53.6064V36.9697Z" fill="var(--fill-0, #202020)"/>
<path id="Vector_225" d="M55.454 36.9697H53.6055V38.8183H54.8185C54.9942 38.8183 55.1441 38.7563 55.268 38.6323C55.3919 38.5084 55.454 38.3586 55.454 38.1828V36.9697Z" fill="var(--fill-0, #202020)"/>
<path id="Vector_226" d="M59.1466 37.5628H59.1503V36.9707H57.3018V37.5628H57.3054C57.303 37.582 57.3018 37.5966 57.3018 37.6062V38.1837C57.3018 38.3596 57.3637 38.5094 57.4877 38.6333C57.6116 38.7573 57.7615 38.8192 57.9371 38.8192H58.5148C58.6905 38.8192 58.8404 38.7573 58.9643 38.6333C59.0882 38.5094 59.1503 38.3596 59.1503 38.1837V37.6062C59.1503 37.5966 59.1491 37.582 59.1466 37.5628Z" fill="var(--fill-0, #202020)"/>
<path id="Vector_227" d="M1.84846 38.8183H-2.11589e-05V40.6667H1.84846V38.8183Z" fill="var(--fill-0, #202020)"/>
<path id="Vector_228" d="M3.69752 38.8185H1.84904V40.6669H3.69752V38.8185Z" fill="var(--fill-0, #202020)"/>
<path id="Vector_229" d="M4.90973 38.8183H3.69666V40.6667H4.90973C5.08543 40.6667 5.23527 40.6047 5.35921 40.4808C5.48315 40.3568 5.54515 40.207 5.54515 40.0313V39.4537C5.54515 39.278 5.48315 39.1282 5.35921 39.0042C5.23527 38.8803 5.08543 38.8183 4.90973 38.8183Z" fill="var(--fill-0, #202020)"/>
<path id="Vector_230" d="M14.7871 39.4539C14.7871 39.2782 14.7251 39.1284 14.6011 39.0044C14.4772 38.8805 14.3274 38.8185 14.1517 38.8185H13.574C13.3983 38.8185 13.2485 38.8805 13.1246 39.0044C13.0006 39.1284 12.9387 39.2782 12.9387 39.4539V40.0315C12.9387 40.0412 12.9397 40.0556 12.9422 40.0749H12.9387V40.6669H14.7871V40.0749H14.7835C14.786 40.0556 14.7871 40.0412 14.7871 40.0315V39.4539Z" fill="var(--fill-0, #202020)"/>
<path id="Vector_231" d="M42.5115 39.4106H42.5152V38.8185H40.6666V39.4106H40.6703C40.6679 39.4298 40.6666 39.4442 40.6666 39.4539V40.0315C40.6666 40.2072 40.7286 40.357 40.8526 40.481C40.9765 40.6049 41.1263 40.6669 41.3021 40.6669H41.8797C42.0555 40.6669 42.2053 40.6049 42.3293 40.481C42.4532 40.357 42.5152 40.2072 42.5152 40.0315V39.4539C42.5152 39.4442 42.514 39.4298 42.5115 39.4106Z" fill="var(--fill-0, #202020)"/>
<path id="Vector_232" d="M46.2117 38.8185H44.3632V40.6669H46.2117V38.8185Z" fill="var(--fill-0, #202020)"/>
<path id="Vector_233" d="M48.0605 38.8183H46.2121V40.6667H48.0605V38.8183Z" fill="var(--fill-0, #202020)"/>
<path id="Vector_234" d="M49.9083 38.8185H48.0597V40.6669H49.9083V38.8185Z" fill="var(--fill-0, #202020)"/>
<path id="Vector_235" d="M51.7572 38.8185H49.9088V40.6669H51.7572V38.8185Z" fill="var(--fill-0, #202020)"/>
<path id="Vector_236" d="M57.303 40.0313C57.303 40.207 57.241 40.3568 57.1171 40.4808C56.9931 40.6047 56.8433 40.6667 56.6676 40.6667H56.09C55.9143 40.6667 55.7645 40.6047 55.6405 40.4808C55.5166 40.3568 55.4545 40.207 55.4545 40.0313V39.4537C55.4545 39.278 55.5165 39.1282 55.6404 39.0042C55.7645 38.8803 55.9143 38.8183 56.09 38.8183H56.6676C56.8433 38.8183 56.9931 38.8803 57.1171 39.0042C57.241 39.1282 57.303 39.278 57.303 39.4537V40.0313Z" fill="var(--fill-0, #202020)"/>
<path id="Vector_237" d="M60.9993 40.0315C60.9993 40.2072 60.9374 40.357 60.8134 40.481C60.6895 40.6049 60.5396 40.6669 60.364 40.6669H59.7863C59.6106 40.6669 59.4608 40.6049 59.3368 40.481C59.2129 40.357 59.1509 40.2072 59.1509 40.0315V39.4539C59.1509 39.2782 59.2129 39.1284 59.3368 39.0044C59.4608 38.8805 59.6106 38.8185 59.7863 38.8185H60.364C60.5396 38.8185 60.6895 38.8805 60.8134 39.0044C60.9374 39.1284 60.9993 39.2782 60.9993 39.4539V40.0315Z" fill="var(--fill-0, #202020)"/>
<path id="Vector_238" d="M1.84846 40.6668H-2.11589e-05V42.5153H1.84846V40.6668Z" fill="var(--fill-0, #202020)"/>
<path id="Vector_239" d="M11.0906 41.3023V40.6668H9.87753C9.70183 40.6668 9.55199 40.7287 9.42805 40.8527C9.30411 40.9766 9.24211 41.1266 9.24211 41.3023V42.5153H11.0906V41.3023Z" fill="var(--fill-0, #202020)"/>
<path id="Vector_240" d="M12.9397 40.6668H11.0912V42.5153H12.9397V40.6668Z" fill="var(--fill-0, #202020)"/>
<path id="Vector_241" d="M14.7871 40.6668H12.9387V42.5153H14.7871V40.6668Z" fill="var(--fill-0, #202020)"/>
<path id="Vector_242" d="M18.4851 41.3023V40.6668H17.2721C17.0964 40.6668 16.9466 40.7287 16.8227 40.8527C16.6987 40.9766 16.6367 41.1266 16.6367 41.3023V42.5153H18.4851V41.3023Z" fill="var(--fill-0, #202020)"/>
<path id="Vector_243" d="M20.3344 40.6668H18.4858V42.5153H20.3344V40.6668Z" fill="var(--fill-0, #202020)"/>
<path id="Vector_244" d="M22.1818 40.6668H20.3334V42.5153H22.1818V40.6668Z" fill="var(--fill-0, #202020)"/>
<path id="Vector_245" d="M24.0309 40.6668H22.1824V42.5153H24.0309V40.6668Z" fill="var(--fill-0, #202020)"/>
<path id="Vector_246" d="M25.8799 41.3023C25.8799 41.1266 25.8179 40.9766 25.6939 40.8527C25.57 40.7289 25.4202 40.6668 25.2445 40.6668H24.0314V42.5153H25.8799V41.3023Z" fill="var(--fill-0, #202020)"/>
<path id="Vector_247" d="M33.2729 41.3023C33.2729 41.1266 33.211 40.9766 33.087 40.8527C32.9631 40.7289 32.8132 40.6668 32.6376 40.6668H32.0599C31.8842 40.6668 31.7344 40.7287 31.6104 40.8527C31.4865 40.9766 31.4245 41.1266 31.4245 41.3023V41.8799C31.4245 41.8895 31.4257 41.904 31.4281 41.9232H31.4245V42.5153H33.2729V41.9232H33.2694C33.2718 41.904 33.2729 41.8896 33.2729 41.8799V41.3023Z" fill="var(--fill-0, #202020)"/>
<path id="Vector_248" d="M38.8187 41.8799C38.8187 42.0556 38.7566 42.2054 38.6327 42.3294C38.5088 42.4533 38.359 42.5153 38.1832 42.5153H37.6056C37.4299 42.5153 37.28 42.4533 37.1562 42.3294C37.0321 42.2054 36.9701 42.0556 36.9701 41.8799V41.3023C36.9701 41.1266 37.0321 40.9766 37.156 40.8528C37.2801 40.7289 37.4299 40.6668 37.6056 40.6668H38.1832C38.359 40.6668 38.5088 40.7287 38.6327 40.8527C38.7567 40.9768 38.8187 41.1266 38.8187 41.3023V41.8799Z" fill="var(--fill-0, #202020)"/>
<path id="Vector_249" d="M46.2117 40.6668H44.3632V42.5153H46.2117V40.6668Z" fill="var(--fill-0, #202020)"/>
<path id="Vector_250" d="M51.7572 40.6668H49.9088V42.5153H51.7572V40.6668Z" fill="var(--fill-0, #202020)"/>
<path id="Vector_251" d="M55.4539 41.3023C55.4539 41.1266 55.3918 40.9766 55.2678 40.8527C55.144 40.7289 54.994 40.6668 54.8184 40.6668H54.2407C54.065 40.6668 53.9152 40.7287 53.7912 40.8527C53.6673 40.9766 53.6053 41.1266 53.6053 41.3023V41.8799C53.6053 41.8895 53.6065 41.904 53.609 41.9232H53.6053V42.5153H55.4539V41.9232H55.4502C55.4526 41.904 55.4539 41.8896 55.4539 41.8799V41.3023Z" fill="var(--fill-0, #202020)"/>
<path id="Vector_252" d="M59.1504 41.8799C59.1504 42.0556 59.0883 42.2054 58.9643 42.3294C58.8405 42.4533 58.6907 42.5153 58.5149 42.5153H57.9372C57.7616 42.5153 57.6117 42.4533 57.4878 42.3294C57.3638 42.2054 57.3019 42.0556 57.3019 41.8799V41.3023C57.3019 41.1266 57.3638 40.9766 57.4878 40.8528C57.6117 40.7289 57.7616 40.6668 57.9372 40.6668H58.5149C58.6907 40.6668 58.8405 40.7287 58.9643 40.8527C59.0883 40.9768 59.1504 41.1266 59.1504 41.3023V41.8799Z" fill="var(--fill-0, #202020)"/>
<path id="Vector_253" d="M1.84848 42.5156H0V44.364H1.84848V42.5156Z" fill="var(--fill-0, #202020)"/>
<path id="Vector_254" d="M5.54477 43.15V42.5146H4.3317C4.15601 42.5146 4.00617 42.5766 3.88223 42.7006C3.75829 42.8245 3.69629 42.9743 3.69629 43.15V43.7277C3.69629 43.9034 3.75827 44.0532 3.88223 44.1771C4.00618 44.3011 4.15601 44.3631 4.3317 44.3631H5.54477V43.15Z" fill="var(--fill-0, #202020)"/>
<path id="Vector_255" d="M7.39406 42.5158H5.54558V44.3643H7.39406V42.5158Z" fill="var(--fill-0, #202020)"/>
<path id="Vector_256" d="M9.24153 42.5158H7.39305V44.3643H9.24153V42.5158Z" fill="var(--fill-0, #202020)"/>
<path id="Vector_257" d="M11.0907 42.5146H9.24219V44.3631H10.4553C10.631 44.3631 10.7808 44.3011 10.9047 44.1771C11.0287 44.0532 11.0907 43.9034 11.0907 43.7277V42.5146Z" fill="var(--fill-0, #202020)"/>
<path id="Vector_258" d="M14.7834 43.1067H14.7869V42.5146H12.9385V43.1067H12.942C12.9396 43.126 12.9385 43.1404 12.9385 43.15V43.7277C12.9385 43.9034 13.0005 44.0532 13.1244 44.1771C13.2484 44.3011 13.3982 44.3631 13.5739 44.3631H14.1515C14.3272 44.3631 14.477 44.3011 14.601 44.1771C14.7249 44.0532 14.7869 43.9034 14.7869 43.7277V43.15C14.7869 43.1404 14.7858 43.126 14.7834 43.1067Z" fill="var(--fill-0, #202020)"/>
<path id="Vector_259" d="M18.4851 42.5146H16.6367V43.7277C16.6367 43.9034 16.6987 44.0532 16.8226 44.1771C16.9466 44.3011 17.0964 44.3631 17.2721 44.3631H18.4851V42.5146Z" fill="var(--fill-0, #202020)"/>
<path id="Vector_260" d="M20.3344 42.5146H18.4858V44.3631H20.3344V42.5146Z" fill="var(--fill-0, #202020)"/>
<path id="Vector_261" d="M24.0312 42.5146H22.1826V44.3631H24.0312V42.5146Z" fill="var(--fill-0, #202020)"/>
<path id="Vector_262" d="M25.8797 42.5146H24.0312V44.3631H25.8797V42.5146Z" fill="var(--fill-0, #202020)"/>
<path id="Vector_263" d="M31.424 43.1512V42.5158H30.2109C30.0351 42.5158 29.8853 42.5778 29.7614 42.7018C29.6374 42.8257 29.5754 42.9755 29.5754 43.1512V44.3643H31.424V43.1512Z" fill="var(--fill-0, #202020)"/>
<path id="Vector_264" d="M33.2727 42.5146H31.4243V44.3631H33.2727V42.5146Z" fill="var(--fill-0, #202020)"/>
<path id="Vector_265" d="M40.6678 43.7277C40.6678 43.9034 40.6058 44.0532 40.4818 44.1771C40.3579 44.3011 40.2082 44.3631 40.0324 44.3631H39.4547C39.279 44.3631 39.1292 44.3011 39.0053 44.1771C38.8813 44.0532 38.8193 43.9034 38.8193 43.7277V43.15C38.8193 42.9743 38.8813 42.8245 39.0053 42.7006C39.1292 42.5766 39.279 42.5146 39.4547 42.5146H40.0324C40.2082 42.5146 40.358 42.5766 40.4818 42.7006C40.6058 42.8245 40.6678 42.9743 40.6678 43.15V43.7277Z" fill="var(--fill-0, #202020)"/>
<path id="Vector_266" d="M46.2118 42.5146H44.3633V44.3631H46.2118V42.5146Z" fill="var(--fill-0, #202020)"/>
<path id="Vector_267" d="M51.7571 42.5146H49.9087V44.3631H51.7571V42.5146Z" fill="var(--fill-0, #202020)"/>
<path id="Vector_268" d="M53.6064 42.5146H51.7578V44.3631H53.6064V42.5146Z" fill="var(--fill-0, #202020)"/>
<path id="Vector_269" d="M55.454 42.5146H53.6055V44.3631H55.454V42.5146Z" fill="var(--fill-0, #202020)"/>
<path id="Vector_270" d="M56.6678 42.5156H55.4546V44.364H56.6678C56.8434 44.364 56.9933 44.3021 57.1172 44.1781C57.2412 44.0542 57.3031 43.9044 57.3031 43.7287V43.151C57.3031 42.9753 57.2412 42.8255 57.1172 42.7016C56.9933 42.5776 56.8434 42.5156 56.6678 42.5156Z" fill="var(--fill-0, #202020)"/>
<path id="Vector_271" d="M60.9993 43.7289C60.9993 43.9046 60.9374 44.0544 60.8134 44.1783C60.6895 44.3023 60.5396 44.3643 60.364 44.3643H59.7863C59.6106 44.3643 59.4608 44.3023 59.3368 44.1783C59.2129 44.0544 59.1509 43.9046 59.1509 43.7289V43.1512C59.1509 42.9755 59.2129 42.8257 59.3368 42.7018C59.4608 42.5778 59.6106 42.5158 59.7863 42.5158H60.364C60.5396 42.5158 60.6895 42.5778 60.8134 42.7018C60.9374 42.8257 60.9993 42.9755 60.9993 43.1512V43.7289Z" fill="var(--fill-0, #202020)"/>
<path id="Vector_272" d="M1.84486 44.9555H1.84846V44.3633H-2.11589e-05V44.9555H0.00358339C0.00118036 44.9746 -2.11589e-05 44.9892 -2.11589e-05 44.9988V45.5765C-2.11589e-05 45.7522 0.0619585 45.902 0.185918 46.0259C0.309877 46.1499 0.459697 46.2118 0.635395 46.2118H1.21305C1.38874 46.2118 1.53858 46.1499 1.66252 46.0259C1.78646 45.902 1.84846 45.7522 1.84846 45.5765V44.9988C1.84846 44.9892 1.8473 44.9746 1.84486 44.9555Z" fill="var(--fill-0, #202020)"/>
<path id="Vector_273" d="M12.9397 45.5765C12.9397 45.7522 12.8776 45.902 12.7537 46.0259C12.6298 46.1499 12.48 46.2118 12.3042 46.2118H11.7266C11.5509 46.2118 11.4011 46.1499 11.2771 46.0259C11.1532 45.902 11.0912 45.7522 11.0912 45.5765V44.9988C11.0912 44.8231 11.1532 44.6733 11.2771 44.5494C11.4011 44.4254 11.5509 44.3633 11.7266 44.3633H12.3042C12.48 44.3633 12.6298 44.4253 12.7537 44.5492C12.8776 44.6733 12.9397 44.8231 12.9397 44.9988V45.5765Z" fill="var(--fill-0, #202020)"/>
<path id="Vector_274" d="M20.3344 44.3633H18.4858V46.2118H20.3344V44.3633Z" fill="var(--fill-0, #202020)"/>
<path id="Vector_275" d="M22.1817 44.3633H20.3333V46.2118H22.1817V44.3633Z" fill="var(--fill-0, #202020)"/>
<path id="Vector_276" d="M24.0309 44.3633H22.1824V46.2118H24.0309V44.3633Z" fill="var(--fill-0, #202020)"/>
<path id="Vector_277" d="M25.8799 44.3633H24.0314V46.2118H25.8799V44.3633Z" fill="var(--fill-0, #202020)"/>
<path id="Vector_278" d="M29.5764 44.9988V44.3633H28.3634C28.1877 44.3633 28.0379 44.4253 27.9139 44.5492C27.79 44.6733 27.728 44.8231 27.728 44.9988V45.5765C27.728 45.7522 27.79 45.902 27.9139 46.0259C28.0379 46.1499 28.1877 46.2118 28.3634 46.2118H29.5764V44.9988Z" fill="var(--fill-0, #202020)"/>
<path id="Vector_279" d="M31.424 44.3633H29.5754V46.2118H31.424V44.3633Z" fill="var(--fill-0, #202020)"/>
<path id="Vector_280" d="M33.2729 44.3633H31.4245V46.2118H32.6376C32.8132 46.2118 32.9631 46.1499 33.087 46.0259C33.211 45.902 33.2729 45.7522 33.2729 45.5765V44.3633Z" fill="var(--fill-0, #202020)"/>
<path id="Vector_281" d="M38.8187 45.5765C38.8187 45.7522 38.7566 45.902 38.6327 46.0259C38.5088 46.1499 38.359 46.2118 38.1832 46.2118H37.6056C37.4299 46.2118 37.28 46.1499 37.1562 46.0259C37.0321 45.902 36.9701 45.7522 36.9701 45.5765V44.9988C36.9701 44.8231 37.0321 44.6733 37.156 44.5494C37.2801 44.4254 37.4299 44.3633 37.6056 44.3633H38.1832C38.359 44.3633 38.5088 44.4253 38.6327 44.5492C38.7567 44.6733 38.8187 44.8231 38.8187 44.9988V45.5765Z" fill="var(--fill-0, #202020)"/>
<path id="Vector_282" d="M42.5152 44.9988C42.5152 44.8231 42.4532 44.6732 42.3293 44.5492C42.2053 44.4254 42.0555 44.3633 41.8797 44.3633H41.3021C41.1263 44.3633 40.9765 44.4253 40.8526 44.5492C40.7286 44.6733 40.6666 44.8231 40.6666 44.9988V45.5765C40.6666 45.586 40.6679 45.6005 40.6703 45.6198H40.6666V46.2118H42.5152V45.6198H42.5115C42.514 45.6005 42.5152 45.5861 42.5152 45.5765V44.9988Z" fill="var(--fill-0, #202020)"/>
<path id="Vector_283" d="M46.2117 44.3633H44.3632V46.2118H46.2117V44.3633Z" fill="var(--fill-0, #202020)"/>
<path id="Vector_284" d="M48.0607 44.3633H46.2122V46.2118H48.0607V44.3633Z" fill="var(--fill-0, #202020)"/>
<path id="Vector_285" d="M49.9083 44.3633H48.0597V46.2118H49.9083V44.3633Z" fill="var(--fill-0, #202020)"/>
<path id="Vector_286" d="M51.7572 44.3633H49.9088V46.2118H51.7572V44.3633Z" fill="var(--fill-0, #202020)"/>
<path id="Vector_287" d="M53.6064 44.3633H51.7578V46.2118H53.6064V44.3633Z" fill="var(--fill-0, #202020)"/>
<path id="Vector_288" d="M59.1504 45.5765C59.1504 45.7522 59.0883 45.902 58.9643 46.0259C58.8405 46.1499 58.6907 46.2118 58.5149 46.2118H57.9372C57.7616 46.2118 57.6117 46.1499 57.4878 46.0259C57.3638 45.902 57.3019 45.7522 57.3019 45.5765V44.9988C57.3019 44.8231 57.3638 44.6733 57.4878 44.5494C57.6117 44.4254 57.7616 44.3633 57.9372 44.3633H58.5149C58.6907 44.3633 58.8405 44.4253 58.9643 44.5492C59.0883 44.6733 59.1504 44.8231 59.1504 44.9988V45.5765Z" fill="var(--fill-0, #202020)"/>
<path id="Vector_289" d="M16.6361 46.8473V46.2119H15.423C15.2473 46.2119 15.0975 46.2739 14.9735 46.3978C14.8496 46.5218 14.7876 46.6716 14.7876 46.8473V47.425C14.7876 47.6006 14.8496 47.7505 14.9735 47.8744C15.0975 47.9984 15.2473 48.0603 15.423 48.0603H16.6361V46.8473Z" fill="var(--fill-0, #202020)"/>
<path id="Vector_290" d="M18.4851 46.2119H16.6367V48.0603H18.4851V46.2119Z" fill="var(--fill-0, #202020)"/>
<path id="Vector_291" d="M20.3344 46.2119H18.4858V48.0603H20.3344V46.2119Z" fill="var(--fill-0, #202020)"/>
<path id="Vector_292" d="M22.1819 46.2119H20.3335V48.0603H22.1819V46.2119Z" fill="var(--fill-0, #202020)"/>
<path id="Vector_293" d="M24.0312 46.2119H22.1826V48.0603H24.0312V46.2119Z" fill="var(--fill-0, #202020)"/>
<path id="Vector_294" d="M25.8797 46.2119H24.0312V48.0603H25.8797V46.2119Z" fill="var(--fill-0, #202020)"/>
<path id="Vector_295" d="M31.4206 46.804H31.4242V46.2119H29.5757V46.804H29.5793C29.5769 46.8233 29.5757 46.8377 29.5757 46.8473V47.425C29.5757 47.6006 29.6377 47.7505 29.7616 47.8744C29.8856 47.9984 30.0354 48.0603 30.2112 48.0603H30.7887C30.9645 48.0603 31.1143 47.9984 31.2383 47.8744C31.3623 47.7505 31.4242 47.6006 31.4242 47.425V46.8473C31.4242 46.8377 31.423 46.8233 31.4206 46.804Z" fill="var(--fill-0, #202020)"/>
<path id="Vector_296" d="M42.515 46.2119H40.6665V48.0603H42.515V46.2119Z" fill="var(--fill-0, #202020)"/>
<path id="Vector_297" d="M46.2118 46.2119H44.3633V48.0603H46.2118V46.2119Z" fill="var(--fill-0, #202020)"/>
<path id="Vector_298" d="M53.6064 46.2119H51.7578V48.0603H53.6064V46.2119Z" fill="var(--fill-0, #202020)"/>
<path id="Vector_299" d="M54.8185 46.2119H53.6055V48.0603H54.8185C54.9942 48.0603 55.1441 47.9984 55.268 47.8744C55.3919 47.7505 55.454 47.6006 55.454 47.425V46.8473C55.454 46.6716 55.3919 46.5218 55.268 46.3978C55.1441 46.2739 54.9942 46.2119 54.8185 46.2119Z" fill="var(--fill-0, #202020)"/>
<path id="Vector_300" d="M60.9993 47.425C60.9993 47.6008 60.9373 47.7505 60.8134 47.8744C60.6894 47.9984 60.5396 48.0603 60.3639 48.0603H59.7863C59.6106 48.0603 59.4608 47.9984 59.3368 47.8744C59.2129 47.7505 59.1509 47.6008 59.1509 47.425V46.8473C59.1509 46.6716 59.2129 46.5218 59.3368 46.3978C59.4608 46.2739 59.6106 46.2119 59.7863 46.2119H60.3639C60.5396 46.2119 60.6894 46.2739 60.8134 46.3978C60.9373 46.5218 60.9993 46.6716 60.9993 46.8473V47.425Z" fill="var(--fill-0, #202020)"/>
<path id="Vector_301" d="M20.3344 48.0606H18.4858V49.9092H20.3344V48.0606Z" fill="var(--fill-0, #202020)"/>
<path id="Vector_302" d="M25.8799 48.0606H24.0314V49.9092H25.8799V48.0606Z" fill="var(--fill-0, #202020)"/>
<path id="Vector_303" d="M27.7259 48.6961C27.7259 48.5205 27.6639 48.3705 27.5399 48.2466C27.416 48.1227 27.2662 48.0606 27.0904 48.0606H25.8773V49.9092H27.7259V48.6961Z" fill="var(--fill-0, #202020)"/>
<path id="Vector_304" d="M33.2729 48.6961V48.0606H32.0599C31.8842 48.0606 31.7344 48.1226 31.6104 48.2466C31.4865 48.3706 31.4245 48.5205 31.4245 48.6961V49.9092H33.2729V48.6961Z" fill="var(--fill-0, #202020)"/>
<path id="Vector_305" d="M35.1205 48.0606H33.272V49.9092H35.1205V48.0606Z" fill="var(--fill-0, #202020)"/>
<path id="Vector_306" d="M36.9696 48.6961C36.9696 48.5205 36.9076 48.3705 36.7837 48.2466C36.6597 48.1227 36.5099 48.0606 36.3342 48.0606H35.1212V49.9092H36.9696V48.6961Z" fill="var(--fill-0, #202020)"/>
<path id="Vector_307" d="M42.5152 48.0606H40.6666V49.2738C40.6666 49.4495 40.7286 49.5993 40.8526 49.7232C40.9765 49.8472 41.1263 49.9092 41.3021 49.9092H42.5152V48.0606Z" fill="var(--fill-0, #202020)"/>
<path id="Vector_308" d="M44.3641 48.0606H42.5157V49.9092H44.3641V48.0606Z" fill="var(--fill-0, #202020)"/>
<path id="Vector_309" d="M46.2117 48.0606H44.3632V49.9092H46.2117V48.0606Z" fill="var(--fill-0, #202020)"/>
<path id="Vector_310" d="M49.9083 49.2738C49.9083 49.4495 49.8463 49.5993 49.7223 49.7232C49.5984 49.8472 49.4486 49.9092 49.2729 49.9092H48.6952C48.5195 49.9092 48.3697 49.8472 48.2458 49.7232C48.1218 49.5993 48.0597 49.4495 48.0597 49.2738V48.6961C48.0597 48.5205 48.1217 48.3706 48.2458 48.2467C48.3697 48.1227 48.5195 48.0606 48.6952 48.0606H49.2729C49.4486 48.0606 49.5984 48.1226 49.7223 48.2466C49.8463 48.3706 49.9083 48.5205 49.9083 48.6961V49.2738Z" fill="var(--fill-0, #202020)"/>
<path id="Vector_311" d="M53.6063 48.0606H51.7578V49.9092H53.6063V48.0606Z" fill="var(--fill-0, #202020)"/>
<path id="Vector_312" d="M59.1504 48.6961C59.1504 48.5205 59.0883 48.3705 58.9643 48.2466C58.8405 48.1227 58.6906 48.0606 58.5149 48.0606H57.9372C57.7616 48.0606 57.6117 48.1226 57.4878 48.2466C57.3638 48.3706 57.3019 48.5205 57.3019 48.6961V49.2738C57.3019 49.2834 57.3031 49.2978 57.3055 49.3171H57.3019V49.9092H59.1504V49.3171H59.1467C59.1492 49.2978 59.1504 49.2834 59.1504 49.2738V48.6961Z" fill="var(--fill-0, #202020)"/>
<path id="Vector_313" d="M18.4851 50.5446V49.9092H17.2721C17.0964 49.9092 16.9466 49.9712 16.8226 50.0951C16.6987 50.2191 16.6367 50.3689 16.6367 50.5446V51.1222C16.6367 51.2979 16.6987 51.4477 16.8226 51.5717C16.9466 51.6956 17.0964 51.7576 17.2721 51.7576H18.4851V50.5446Z" fill="var(--fill-0, #202020)"/>
<path id="Vector_314" d="M20.3344 49.9092H18.4858V51.7576H20.3344V49.9092Z" fill="var(--fill-0, #202020)"/>
<path id="Vector_315" d="M22.1819 49.9092H20.3335V51.7576H22.1819V49.9092Z" fill="var(--fill-0, #202020)"/>
<path id="Vector_316" d="M24.0312 49.9092H22.1826V51.7576H24.0312V49.9092Z" fill="var(--fill-0, #202020)"/>
<path id="Vector_317" d="M25.8797 49.9092H24.0312V51.7576H25.8797V49.9092Z" fill="var(--fill-0, #202020)"/>
<path id="Vector_318" d="M27.726 49.9092H25.8774V51.7576H27.726V49.9092Z" fill="var(--fill-0, #202020)"/>
<path id="Vector_319" d="M29.5764 49.9092H27.728V51.7576H29.5764V49.9092Z" fill="var(--fill-0, #202020)"/>
<path id="Vector_320" d="M31.4242 49.9092H29.5757V51.7576H31.4242V49.9092Z" fill="var(--fill-0, #202020)"/>
<path id="Vector_321" d="M33.2727 49.9092H31.4243V51.7576H33.2727V49.9092Z" fill="var(--fill-0, #202020)"/>
<path id="Vector_322" d="M36.9695 49.9092H35.1211V51.7576H36.9695V49.9092Z" fill="var(--fill-0, #202020)"/>
<path id="Vector_323" d="M38.8188 50.5446C38.8188 50.3689 38.7568 50.2191 38.6328 50.0951C38.5089 49.9712 38.3591 49.9092 38.1833 49.9092H36.9702V51.7576H38.8188V50.5446Z" fill="var(--fill-0, #202020)"/>
<path id="Vector_324" d="M44.364 49.9092H42.5156V51.1222C42.5156 51.2979 42.5776 51.4477 42.7016 51.5717C42.8255 51.6956 42.9753 51.7576 43.151 51.7576H44.364V49.9092Z" fill="var(--fill-0, #202020)"/>
<path id="Vector_325" d="M46.2118 49.9092H44.3633V51.7576H46.2118V49.9092Z" fill="var(--fill-0, #202020)"/>
<path id="Vector_326" d="M53.6064 49.9092H51.7578V51.7576H53.6064V49.9092Z" fill="var(--fill-0, #202020)"/>
<path id="Vector_327" d="M55.454 49.9092H53.6055V51.7576H55.454V49.9092Z" fill="var(--fill-0, #202020)"/>
<path id="Vector_328" d="M57.3031 49.9092H55.4546V51.7576H57.3031V49.9092Z" fill="var(--fill-0, #202020)"/>
<path id="Vector_329" d="M59.1503 49.9092H57.3018V51.7576H59.1503V49.9092Z" fill="var(--fill-0, #202020)"/>
<path id="Vector_330" d="M60.9993 50.5446C60.9993 50.3689 60.9373 50.2191 60.8134 50.0951C60.6894 49.9712 60.5396 49.9092 60.3639 49.9092H59.1509V51.7576H60.9993V50.5446Z" fill="var(--fill-0, #202020)"/>
<path id="Vector_331" d="M16.6361 52.3923C16.6361 52.2167 16.574 52.0667 16.4502 51.9429C16.3263 51.8189 16.1763 51.7568 16.0006 51.7568H15.423C15.2473 51.7568 15.0975 51.8188 14.9735 51.9429C14.8496 52.0668 14.7876 52.2167 14.7876 52.3923V52.97C14.7876 52.9796 14.7888 52.994 14.7913 53.0133H14.7876V53.6054H16.6361V53.0133H16.6325C16.6349 52.994 16.6361 52.9796 16.6361 52.97V52.3923Z" fill="var(--fill-0, #202020)"/>
<path id="Vector_332" d="M27.7259 51.758H25.8773V53.6065H27.7259V51.758Z" fill="var(--fill-0, #202020)"/>
<path id="Vector_333" d="M29.5764 51.758H27.728V53.6065H29.5764V51.758Z" fill="var(--fill-0, #202020)"/>
<path id="Vector_334" d="M31.424 51.758H29.5754V53.6065H31.424V51.758Z" fill="var(--fill-0, #202020)"/>
<path id="Vector_335" d="M33.2729 51.758H31.4245V53.6065H33.2729V51.758Z" fill="var(--fill-0, #202020)"/>
<path id="Vector_336" d="M35.1205 51.7568H33.272V53.6054H35.1205V51.7568Z" fill="var(--fill-0, #202020)"/>
<path id="Vector_337" d="M36.9695 51.7568H35.1211V53.6054H36.9695V51.7568Z" fill="var(--fill-0, #202020)"/>
<path id="Vector_338" d="M38.8188 51.7568H36.9702V53.6054H38.8188V51.7568Z" fill="var(--fill-0, #202020)"/>
<path id="Vector_339" d="M40.6678 51.7568H38.8193V53.6054H40.6678V51.7568Z" fill="var(--fill-0, #202020)"/>
<path id="Vector_340" d="M41.8797 51.758H40.6666V53.6065H41.8797C42.0555 53.6065 42.2053 53.5445 42.3293 53.4206C42.4532 53.2966 42.5152 53.1468 42.5152 52.9711V52.3935C42.5152 52.2178 42.4532 52.0678 42.3293 51.944C42.2053 51.8201 42.0555 51.758 41.8797 51.758Z" fill="var(--fill-0, #202020)"/>
<path id="Vector_341" d="M46.2117 51.758H44.3632V52.9711C44.3632 53.1468 44.4253 53.2966 44.5492 53.4206C44.6732 53.5445 44.823 53.6065 44.9987 53.6065H46.2117V51.758Z" fill="var(--fill-0, #202020)"/>
<path id="Vector_342" d="M48.0608 51.7568H46.2124V53.6054H48.0608V51.7568Z" fill="var(--fill-0, #202020)"/>
<path id="Vector_343" d="M49.9083 51.758H48.0597V53.6065H49.9083V51.758Z" fill="var(--fill-0, #202020)"/>
<path id="Vector_344" d="M51.7571 51.7568H49.9087V53.6054H51.7571V51.7568Z" fill="var(--fill-0, #202020)"/>
<path id="Vector_345" d="M53.6064 51.7568H51.7578V53.6054H53.6064V51.7568Z" fill="var(--fill-0, #202020)"/>
<path id="Vector_346" d="M55.454 51.7568H53.6055V53.6054H55.454V51.7568Z" fill="var(--fill-0, #202020)"/>
<path id="Vector_347" d="M59.1504 51.758H57.3019V53.6065H59.1504V51.758Z" fill="var(--fill-0, #202020)"/>
<path id="Vector_348" d="M60.9993 51.758H59.1509V53.6065H60.364C60.5396 53.6065 60.6895 53.5445 60.8134 53.4206C60.9374 53.2966 60.9993 53.1468 60.9993 52.9711V51.758Z" fill="var(--fill-0, #202020)"/>
<path id="Vector_349" d="M16.6361 53.6064H14.7876V55.4549H16.6361V53.6064Z" fill="var(--fill-0, #202020)"/>
<path id="Vector_350" d="M24.0309 54.2416V53.6062H22.8179C22.6421 53.6062 22.4923 53.6682 22.3683 53.7922C22.2444 53.9161 22.1824 54.0659 22.1824 54.2416V54.8193C22.1824 54.995 22.2444 55.1448 22.3683 55.2687C22.4923 55.3927 22.6421 55.4547 22.8179 55.4547H24.0309V54.2416Z" fill="var(--fill-0, #202020)"/>
<path id="Vector_351" d="M25.8799 53.6062H24.0314V55.4547H25.8799V53.6062Z" fill="var(--fill-0, #202020)"/>
<path id="Vector_352" d="M27.7259 53.6062H25.8773V55.4547H27.7259V53.6062Z" fill="var(--fill-0, #202020)"/>
<path id="Vector_353" d="M29.5764 53.6062H27.728V55.4547H29.5764V53.6062Z" fill="var(--fill-0, #202020)"/>
<path id="Vector_354" d="M35.1205 53.6062H33.272V55.4547H35.1205V53.6062Z" fill="var(--fill-0, #202020)"/>
<path id="Vector_355" d="M44.3641 54.2416C44.3641 54.0659 44.3022 53.9161 44.1782 53.7922C44.0543 53.6682 43.9044 53.6062 43.7288 53.6062H43.1511C42.9754 53.6062 42.8256 53.6682 42.7016 53.7922C42.5777 53.9161 42.5157 54.0659 42.5157 54.2416V54.8193C42.5157 54.8289 42.5169 54.8434 42.5192 54.8626H42.5157V55.4547H44.3641V54.8626H44.3606C44.363 54.8434 44.3641 54.8289 44.3641 54.8193V54.2416Z" fill="var(--fill-0, #202020)"/>
<path id="Vector_356" d="M48.0603 53.6064H46.2119V55.4549H48.0603V53.6064Z" fill="var(--fill-0, #202020)"/>
<path id="Vector_357" d="M53.6064 53.6064H51.7578V54.8195C51.7578 54.9952 51.8198 55.145 51.9439 55.2689C52.0678 55.3929 52.2176 55.4549 52.3933 55.4549H53.6064V53.6064Z" fill="var(--fill-0, #202020)"/>
<path id="Vector_358" d="M55.4539 53.6062H53.6053V55.4547H55.4539V53.6062Z" fill="var(--fill-0, #202020)"/>
<path id="Vector_359" d="M59.1467 54.1983H59.1504V53.6062H57.3019V54.1983H57.3055C57.3031 54.2176 57.3019 54.232 57.3019 54.2416V54.8193C57.3019 54.995 57.3638 55.1448 57.4878 55.2687C57.6117 55.3927 57.7616 55.4547 57.9372 55.4547H58.5149C58.6906 55.4547 58.8405 55.3927 58.9643 55.2687C59.0883 55.1448 59.1504 54.995 59.1504 54.8193V54.2416C59.1504 54.232 59.1492 54.2176 59.1467 54.1983Z" fill="var(--fill-0, #202020)"/>
<path id="Vector_360" d="M16.6325 56.0473H16.6361V55.4551H14.7876V56.0473H14.7913C14.7888 56.0665 14.7876 56.0809 14.7876 56.0906V56.6682C14.7876 56.8439 14.8496 56.9937 14.9735 57.1177C15.0975 57.2416 15.2473 57.3036 15.423 57.3036H16.0006C16.1763 57.3036 16.3263 57.2416 16.4502 57.1177C16.574 56.9937 16.6361 56.8439 16.6361 56.6682V56.0906C16.6361 56.0809 16.6349 56.0665 16.6325 56.0473Z" fill="var(--fill-0, #202020)"/>
<path id="Vector_361" d="M20.3344 56.6673C20.3344 56.8429 20.2723 56.9928 20.1485 57.1167C20.0245 57.2407 19.8747 57.3026 19.6989 57.3026H19.1212C18.9455 57.3026 18.7957 57.2407 18.6718 57.1167C18.5478 56.9928 18.4858 56.8429 18.4858 56.6673V56.0896C18.4858 55.9139 18.5478 55.7641 18.6718 55.6402C18.7957 55.5162 18.9455 55.4541 19.1212 55.4541H19.6989C19.8747 55.4541 20.0245 55.5162 20.1485 55.6402C20.2723 55.7641 20.3344 55.9139 20.3344 56.0896V56.6673Z" fill="var(--fill-0, #202020)"/>
<path id="Vector_362" d="M27.726 55.4541H25.8774V57.3026H27.726V55.4541Z" fill="var(--fill-0, #202020)"/>
<path id="Vector_363" d="M29.5764 55.4541H27.728V57.3026H29.5764V55.4541Z" fill="var(--fill-0, #202020)"/>
<path id="Vector_364" d="M31.4242 55.4541H29.5757V57.3026H31.4242V55.4541Z" fill="var(--fill-0, #202020)"/>
<path id="Vector_365" d="M33.2727 55.4541H31.4243V57.3026H33.2727V55.4541Z" fill="var(--fill-0, #202020)"/>
<g id="Vector_366">
</g>
<path id="Vector_367" d="M36.9695 55.4551H35.1211V57.3036H36.9695V55.4551Z" fill="var(--fill-0, #202020)"/>
<path id="Vector_368" d="M38.8188 55.4541H36.9702V57.3026H38.8188V55.4541Z" fill="var(--fill-0, #202020)"/>
<path id="Vector_369" d="M40.0324 55.4541H38.8193V57.3026H40.0324C40.2081 57.3026 40.3579 57.2407 40.4818 57.1167C40.6058 56.9928 40.6678 56.8429 40.6678 56.6673V56.0896C40.6678 55.9139 40.6058 55.764 40.4818 55.6402C40.3579 55.5162 40.2081 55.4541 40.0324 55.4541Z" fill="var(--fill-0, #202020)"/>
<path id="Vector_370" d="M44.3605 56.0463H44.364V55.4541H42.5156V56.0463H42.5192C42.5168 56.0656 42.5156 56.08 42.5156 56.0896V56.6673C42.5156 56.8429 42.5776 56.9928 42.7016 57.1167C42.8255 57.2407 42.9753 57.3026 43.151 57.3026H43.7287C43.9044 57.3026 44.0542 57.2407 44.1781 57.1167C44.3021 56.9928 44.364 56.8429 44.364 56.6673V56.0896C44.364 56.08 44.363 56.0656 44.3605 56.0463Z" fill="var(--fill-0, #202020)"/>
<path id="Vector_371" d="M48.0603 55.4551H46.2119V57.3036H48.0603V55.4551Z" fill="var(--fill-0, #202020)"/>
<path id="Vector_372" d="M49.2727 55.4541H48.0596V57.3026H49.2727C49.4484 57.3026 49.5982 57.2407 49.7222 57.1167C49.8461 56.9928 49.9081 56.8429 49.9081 56.6673V56.0896C49.9081 55.9139 49.8461 55.764 49.7222 55.6402C49.5982 55.5162 49.4484 55.4541 49.2727 55.4541Z" fill="var(--fill-0, #202020)"/>
<path id="Vector_373" d="M55.454 55.4541H53.6055V57.3026H55.454V55.4541Z" fill="var(--fill-0, #202020)"/>
<path id="Vector_374" d="M18.4852 58.5158C18.4852 58.6916 18.4232 58.8414 18.2993 58.9653C18.1753 59.0892 18.0255 59.1513 17.8498 59.1513H17.2722C17.0965 59.1513 16.9467 59.0892 16.8227 58.9653C16.6988 58.8414 16.6368 58.6916 16.6368 58.5158V57.9381C16.6368 57.7625 16.6988 57.6127 16.8227 57.4887C16.9467 57.3647 17.0965 57.3028 17.2722 57.3028H17.8498C18.0255 57.3028 18.1753 57.3647 18.2993 57.4887C18.4232 57.6127 18.4852 57.7625 18.4852 57.9381V58.5158Z" fill="var(--fill-0, #202020)"/>
<path id="Vector_375" d="M24.0309 57.9389V57.3036H22.8179C22.6421 57.3036 22.4923 57.3655 22.3683 57.4895C22.2444 57.6134 22.1824 57.7633 22.1824 57.9389V59.1521H24.0309V57.9389Z" fill="var(--fill-0, #202020)"/>
<path id="Vector_376" d="M25.8799 57.3036H24.0314V59.1521H25.8799V57.3036Z" fill="var(--fill-0, #202020)"/>
<path id="Vector_377" d="M27.7259 57.3036H25.8773V59.1521H27.7259V57.3036Z" fill="var(--fill-0, #202020)"/>
<path id="Vector_378" d="M31.424 57.3036H29.5754V58.5166C29.5754 58.6923 29.6374 58.8422 29.7614 58.9661C29.8853 59.09 30.0351 59.1521 30.2109 59.1521H31.424V57.3036Z" fill="var(--fill-0, #202020)"/>
<path id="Vector_379" d="M33.2729 57.3036H31.4245V59.1521H33.2729V57.3036Z" fill="var(--fill-0, #202020)"/>
<path id="Vector_380" d="M35.1205 57.3036H33.272V59.1521H34.485C34.6608 59.1521 34.8107 59.09 34.9346 58.9661C35.0586 58.8422 35.1205 58.6923 35.1205 58.5166V57.3036Z" fill="var(--fill-0, #202020)"/>
<path id="Vector_381" d="M42.5152 58.5166C42.5152 58.6924 42.4531 58.8422 42.3293 58.9661C42.2053 59.09 42.0555 59.1521 41.8797 59.1521H41.3021C41.1265 59.1521 40.9765 59.09 40.8526 58.9661C40.7286 58.8422 40.6666 58.6924 40.6666 58.5166V57.9389C40.6666 57.7633 40.7286 57.6134 40.8526 57.4895C40.9766 57.3655 41.1265 57.3036 41.3021 57.3036H41.8797C42.0555 57.3036 42.2053 57.3655 42.3293 57.4895C42.4532 57.6134 42.5152 57.7633 42.5152 57.9389V58.5166Z" fill="var(--fill-0, #202020)"/>
<path id="Vector_382" d="M48.0571 57.8956H48.0607V57.3036H46.2122V57.8956H46.2158C46.2135 57.9149 46.2122 57.9293 46.2122 57.9389V58.5166C46.2122 58.6923 46.2742 58.8422 46.3982 58.9661C46.5221 59.09 46.6719 59.1521 46.8476 59.1521H47.4253C47.601 59.1521 47.7508 59.09 47.8747 58.9661C47.9987 58.8422 48.0607 58.6923 48.0607 58.5166V57.9389C48.0607 57.9293 48.0596 57.9149 48.0571 57.8956Z" fill="var(--fill-0, #202020)"/>
<path id="Vector_383" d="M51.7572 58.5158C51.7572 58.6916 51.6952 58.8414 51.5713 58.9653C51.4473 59.0892 51.2975 59.1513 51.1218 59.1513H50.5442C50.3685 59.1513 50.2187 59.0892 50.0947 58.9653C49.9708 58.8414 49.9088 58.6916 49.9088 58.5158V57.9381C49.9088 57.7625 49.9708 57.6127 50.0947 57.4887C50.2187 57.3647 50.3685 57.3028 50.5442 57.3028H51.1218C51.2976 57.3028 51.4474 57.3647 51.5713 57.4887C51.6952 57.6127 51.7572 57.7625 51.7572 57.9381V58.5158Z" fill="var(--fill-0, #202020)"/>
<path id="Vector_384" d="M55.4539 57.3036H53.6053V58.5166C53.6053 58.6923 53.6673 58.8422 53.7912 58.9661C53.9152 59.09 54.065 59.1521 54.2407 59.1521H55.4539V57.3036Z" fill="var(--fill-0, #202020)"/>
<path id="Vector_385" d="M56.6675 57.3036H55.4544V59.1521H56.6675C56.8432 59.1521 56.993 59.09 57.117 58.9661C57.2409 58.8422 57.3029 58.6923 57.3029 58.5166V57.9389C57.3029 57.7633 57.2409 57.6134 57.117 57.4895C56.993 57.3655 56.8432 57.3036 56.6675 57.3036Z" fill="var(--fill-0, #202020)"/>
<path id="Vector_386" d="M20.3344 60.3644C20.3344 60.5401 20.2723 60.6899 20.1485 60.8139C20.0245 60.9378 19.8747 60.9998 19.6989 60.9998H19.1212C18.9455 60.9998 18.7957 60.9378 18.6718 60.8139C18.5478 60.6899 18.4858 60.5401 18.4858 60.3644V59.7867C18.4858 59.6111 18.5478 59.4612 18.6718 59.3373C18.7957 59.2133 18.9455 59.1514 19.1212 59.1514H19.6989C19.8747 59.1514 20.0245 59.2133 20.1485 59.3373C20.2723 59.4612 20.3344 59.6111 20.3344 59.7867V60.3644Z" fill="var(--fill-0, #202020)"/>
<path id="Vector_387" d="M24.0275 59.7434H24.0312V59.1514H22.1826V59.7434H22.1863C22.1838 59.7627 22.1826 59.7771 22.1826 59.7867V60.3644C22.1826 60.5401 22.2446 60.6899 22.3685 60.8139C22.4925 60.9378 22.6423 60.9998 22.8181 60.9998H23.3957C23.5715 60.9998 23.7213 60.9378 23.8452 60.8139C23.9692 60.6899 24.0312 60.5401 24.0312 60.3644V59.7867C24.0312 59.7771 24.0299 59.7627 24.0275 59.7434Z" fill="var(--fill-0, #202020)"/>
<path id="Vector_388" d="M27.726 59.1514H25.8774V60.3644C25.8774 60.5401 25.9394 60.6899 26.0634 60.8139C26.1873 60.9378 26.3371 60.9998 26.5129 60.9998H27.726V59.1514Z" fill="var(--fill-0, #202020)"/>
<path id="Vector_389" d="M28.9411 59.1514H27.728V60.9998H28.9411C29.1168 60.9998 29.2666 60.9378 29.3905 60.8139C29.5145 60.6899 29.5764 60.5401 29.5764 60.3644V59.7867C29.5764 59.6111 29.5145 59.4612 29.3905 59.3373C29.2666 59.2133 29.1168 59.1514 28.9411 59.1514Z" fill="var(--fill-0, #202020)"/>
<path id="Vector_390" d="M33.2692 59.7434H33.2727V59.1514H31.4243V59.7434H31.4279C31.4255 59.7627 31.4243 59.7771 31.4243 59.7867V60.3644C31.4243 60.5401 31.4863 60.6899 31.6102 60.8139C31.7342 60.9378 31.884 60.9998 32.0597 60.9998H32.6374C32.813 60.9998 32.9629 60.9378 33.0868 60.8139C33.2108 60.6899 33.2727 60.5401 33.2727 60.3644V59.7867C33.2727 59.7771 33.2716 59.7627 33.2692 59.7434Z" fill="var(--fill-0, #202020)"/>
<path id="Vector_391" d="M38.8188 60.3644C38.8188 60.5401 38.7567 60.6899 38.6328 60.8139C38.5089 60.9378 38.3591 60.9998 38.1833 60.9998H37.6057C37.43 60.9998 37.2801 60.9378 37.1563 60.8139C37.0322 60.6899 36.9702 60.5401 36.9702 60.3644V59.7867C36.9702 59.6111 37.0322 59.4612 37.1561 59.3373C37.2802 59.2133 37.43 59.1514 37.6057 59.1514H38.1833C38.3591 59.1514 38.5089 59.2133 38.6328 59.3373C38.7568 59.4612 38.8188 59.6111 38.8188 59.7867V60.3644Z" fill="var(--fill-0, #202020)"/>
<path id="Vector_392" d="M44.364 59.7867V59.1514H43.151C42.9753 59.1514 42.8255 59.2133 42.7016 59.3373C42.5776 59.4612 42.5156 59.6111 42.5156 59.7867V60.3644C42.5156 60.5401 42.5776 60.6899 42.7016 60.8139C42.8255 60.9378 42.9753 60.9998 43.151 60.9998H44.364V59.7867Z" fill="var(--fill-0, #202020)"/>
<path id="Vector_393" d="M45.5764 59.1514H44.3633V60.9998H45.5764C45.7521 60.9998 45.9019 60.9378 46.0259 60.8139C46.1499 60.6899 46.2118 60.5401 46.2118 60.3644V59.7867C46.2118 59.6111 46.1499 59.4612 46.0259 59.3373C45.9019 59.2133 45.7521 59.1514 45.5764 59.1514Z" fill="var(--fill-0, #202020)"/>
<path id="Vector_394" d="M59.1503 60.3644C59.1503 60.5401 59.0882 60.6899 58.9643 60.8139C58.8404 60.9378 58.6906 60.9998 58.5148 60.9998H57.9371C57.7615 60.9998 57.6116 60.9378 57.4877 60.8139C57.3637 60.6899 57.3018 60.5401 57.3018 60.3644V59.7867C57.3018 59.6111 57.3637 59.4612 57.4877 59.3373C57.6116 59.2133 57.7615 59.1514 57.9371 59.1514H58.5148C58.6906 59.1514 58.8404 59.2133 58.9643 59.3373C59.0882 59.4612 59.1503 59.6111 59.1503 59.7867V60.3644Z" fill="var(--fill-0, #202020)"/>
<path id="Vector_395" d="M8.52176 0.000976562H4.41764C2.41747 0.000976562 0.722924 1.32248 0.181152 3.12869C0.125124 3.31553 0.0813888 3.50755 0.0509812 3.70385C0.0174682 3.92045 0 4.14223 0 4.36803V8.56957C0 10.9788 1.98232 12.9379 4.41764 12.9379L6.4697 12.9383L8.52176 12.9377C10.957 12.9377 12.9394 10.9786 12.9394 8.56944V4.36803C12.9394 1.96 10.9571 0.000976562 8.52176 0.000976562ZM10.9985 8.56957C10.9985 9.90802 9.88751 10.997 8.52124 10.997L6.4697 10.9974L4.41816 10.9969C3.05189 10.9969 1.94091 9.90789 1.94091 8.56957V4.36803C1.94091 3.94995 2.04934 3.55634 2.2402 3.21241C2.42393 2.88154 2.68389 2.597 2.99689 2.38156C3.39931 2.10454 3.88932 1.94189 4.41751 1.94189H8.52176C9.88751 1.94189 10.9985 3.03021 10.9985 4.36803V8.56957Z" fill="var(--fill-0, #202020)"/>
<path id="Vector_396" d="M56.5815 0.000895182H52.4775C50.4773 0.000895182 48.7827 1.3224 48.2409 3.12861C48.1849 3.31545 48.1412 3.50747 48.1107 3.70377C48.0773 3.92037 48.0597 4.14215 48.0597 4.36795V8.56949C48.0597 10.9787 50.0421 12.9378 52.4775 12.9378L54.5295 12.9383L56.5815 12.9377C59.0168 12.9377 60.9992 10.9786 60.9992 8.56936V4.36795C60.9992 1.95992 59.0169 0.000895182 56.5815 0.000895182ZM59.0583 8.56949C59.0583 9.90794 57.9473 10.9969 56.5811 10.9969L54.5295 10.9973L52.4779 10.9968C51.1117 10.9968 50.0007 9.90781 50.0007 8.56949V4.36795C50.0007 3.94986 50.1091 3.55626 50.3 3.21233C50.4837 2.88146 50.7437 2.59692 51.0566 2.38148C51.4591 2.10446 51.9491 1.94181 52.4773 1.94181H56.5815C57.9473 1.94181 59.0583 3.03013 59.0583 4.36795V8.56949Z" fill="var(--fill-0, #202020)"/>
<path id="Vector_397" d="M8.52174 48.0616H4.41762C2.41745 48.0616 0.722903 49.3831 0.181131 51.1893C0.125103 51.3761 0.0813676 51.5682 0.0509601 51.7644C0.017447 51.9811 -2.11589e-05 52.2029 -2.11589e-05 52.4286V56.6302C-2.11589e-05 59.0394 1.9823 60.9985 4.41762 60.9985L6.46968 60.999L8.52174 60.9984C10.9569 60.9984 12.9394 59.0393 12.9394 56.6301V52.4286C12.9394 50.0207 10.9571 48.0616 8.52174 48.0616ZM10.9985 56.6302C10.9985 57.9686 9.88749 59.0576 8.52121 59.0576L6.46968 59.058L4.41814 59.0575C3.05187 59.0575 1.94089 57.9685 1.94089 56.6302V52.4286C1.94089 52.0106 2.04932 51.617 2.24018 51.273C2.42391 50.9422 2.68387 50.6577 2.99687 50.4422C3.39929 50.1652 3.8893 50.0025 4.41749 50.0025H8.52174C9.88749 50.0025 10.9985 51.0909 10.9985 52.4286V56.6302Z" fill="var(--fill-0, #202020)"/>
<path id="Vector_398" d="M5.21381 9.24175C4.377 9.24175 3.69629 8.57452 3.69629 7.75512V5.18214C3.69629 4.92616 3.76284 4.68527 3.87935 4.47449C3.99187 4.27163 4.15113 4.09729 4.34295 3.96575C4.58933 3.79617 4.88967 3.69629 5.21297 3.69629H7.72656C8.5626 3.69629 9.2433 4.36275 9.2433 5.18209V7.75507C9.2433 8.57441 8.56265 9.24169 7.72656 9.24169H6.4698L5.21381 9.24175Z" fill="var(--fill-0, #202020)"/>
<path id="Vector_399" d="M53.2739 9.24175C52.4371 9.24175 51.7563 8.57452 51.7563 7.75512V5.18214C51.7563 4.92616 51.823 4.68527 51.9395 4.47449C52.052 4.27163 52.2112 4.09729 52.4031 3.96575C52.6494 3.79617 52.9498 3.69629 53.2731 3.69629H55.7866C56.6227 3.69629 57.3033 4.36275 57.3033 5.18209V7.75507C57.3033 8.57441 56.6227 9.24169 55.7866 9.24169H54.5299L53.2739 9.24175Z" fill="var(--fill-0, #202020)"/>
<path id="Vector_400" d="M5.21381 57.3023C4.377 57.3023 3.69629 56.6351 3.69629 55.8158V53.2428C3.69629 52.9867 3.76284 52.7459 3.87935 52.5351C3.99187 52.3322 4.15113 52.1578 4.34295 52.0263C4.58933 51.8568 4.88967 51.7568 5.21297 51.7568H7.72656C8.5626 51.7568 9.2433 52.4233 9.2433 53.2427V55.8157C9.2433 56.635 8.56265 57.3023 7.72656 57.3023H6.4698H5.21381Z" fill="var(--fill-0, #202020)"/>
<path id="Vector_401" d="M40.6266 20.3739H20.3746V40.6259H40.6266V20.3739Z" fill="var(--fill-0, #F1F1F1)"/>
</g>
<defs>
<clipPath id="clip0_0_550">
<rect width="61" height="61" fill="white"/>
</clipPath>
</defs>
</svg>
