<svg width="14" height="14" viewBox="0 0 14 14" fill="none" xmlns="http://www.w3.org/2000/svg">
<path d="M13.3333 5.48134C11.9706 5.48134 10.7072 5.10132 9.67635 4.45574V9.11427C9.67635 11.441 7.50573 13.3333 4.83818 13.3333C3.80734 13.3333 2.85105 13.05 2.06549 12.5689C0.818043 11.8049 0 10.5416 0 9.11427C0 6.78751 2.17062 4.89465 4.83881 4.89465C5.06053 4.89465 5.27714 4.91076 5.49057 4.93576V5.47856V7.27586C5.28415 7.21975 5.06626 7.18697 4.83881 7.18697C3.62067 7.18697 2.62933 8.05145 2.62933 9.11427C2.62933 9.8543 3.11098 10.4971 3.81435 10.8199C4.1208 10.9605 4.46929 11.041 4.83945 11.041C6.02956 11.041 7.00051 10.2154 7.04511 9.18649L7.04702 0H9.67572C9.67572 0.198897 9.69801 0.392794 9.73751 0.581691C9.92291 1.45506 10.5173 2.20454 11.3411 2.67289C11.9145 2.99901 12.5988 3.18958 13.3327 3.18958L13.3333 5.48134Z" fill="#59AD3B"/>
</svg>
