<svg width="16" height="16" viewBox="0 0 16 16" fill="none" xmlns="http://www.w3.org/2000/svg">
<g clip-path="url(#clip0_huawei)">
<path fill-rule="evenodd" clip-rule="evenodd" d="M10.4405 0.326085H4.3867C1.53263 0.326085 0.488412 1.3703 0.488412 4.22438V10.2826C0.488412 13.1366 1.53263 14.1808 4.3867 14.1808H10.4405C13.2946 14.1808 14.3403 13.1366 14.3403 10.2826V4.22438C14.3432 1.3703 13.299 0.326085 10.4405 0.326085ZM3.23183 7.2534H3.59935V9.06619H3.23183V8.3297H2.40201V9.06619H2.03449V7.2534H2.40201V7.9826H3.23183V7.2534ZM5.30275 8.29032C5.30275 8.582 5.15692 8.74243 4.89149 8.74243C4.62606 8.74243 4.4773 8.582 4.4773 8.27428V7.2534H4.10979V8.28887C4.10979 8.79785 4.39271 9.08952 4.88565 9.08952C5.37859 9.08952 5.67027 8.79785 5.67027 8.27282V7.2534H5.30275V8.29032ZM9.13834 7.2534H8.83645L8.4281 8.50033L8.02704 7.2534H7.63619L8.26768 9.06619H8.57248L8.98229 7.87614L9.39356 9.06619H9.70128L10.3328 7.2534H9.95065L9.5496 8.49887L9.13834 7.2534ZM10.9905 8.28449H11.6599V7.95635H10.9905V7.58592H11.9618V7.2534H10.6288V9.06182H11.9967V8.73513H10.9905V8.28449ZM12.4343 9.06182H12.7974V7.2534H12.4343V9.06182ZM6.39655 8.68701L6.23176 9.06328H5.85695L6.64886 7.2534H6.97262L7.76745 9.06328H7.38826L7.23221 8.68846L6.39655 8.68701ZM6.53365 8.36032H7.08638L6.80928 7.7128L6.53365 8.36032ZM5.7857 4.27199C6.21802 4.70431 6.80427 4.94736 7.41566 4.94774C8.02707 4.94736 8.6133 4.70431 9.04563 4.27199C9.47795 3.83966 9.721 3.25342 9.72139 2.64202H9.39617C9.39617 3.16729 9.1875 3.67103 8.81609 4.04245C8.44468 4.41386 7.94092 4.62252 7.41566 4.62252C6.8904 4.62252 6.38666 4.41386 6.01524 4.04245C5.64382 3.67103 5.43516 3.16729 5.43516 2.64202H5.10993C5.11033 3.25342 5.35337 3.83966 5.7857 4.27199Z" fill="#59AD3B"/>
</g>
<defs>
<clipPath id="clip0_huawei">
<rect width="16" height="16" fill="white"/>
</clipPath>
</defs>
</svg>
