<svg preserveAspectRatio="none" width="100%" height="100%" overflow="visible" style="display: block;" viewBox="0 0 22 22" fill="none" xmlns="http://www.w3.org/2000/svg">
<g id="Solid">
<path d="M10 1.6011C10 1.00898 10 0.712927 9.85457 0.473619C9.7385 0.28264 9.50599 0.101945 9.29227 0.0366277C9.02446 -0.0452189 8.77489 0.0183706 8.27574 0.145549C3.51831 1.35769 0 5.67077 0 10.8056C0 16.8807 4.92487 21.8056 11 21.8056C12.4348 21.8056 13.8055 21.5309 15.0623 21.0312C15.5406 20.841 15.7797 20.7459 15.9484 20.5223C16.083 20.3438 16.1649 20.0609 16.1466 19.8381C16.1236 19.559 15.9496 19.3195 15.6016 18.8405L10.1977 11.4027C10.0735 11.236 10 11.0294 10 10.8056V1.6011Z" fill="var(--fill-0, white)"/>
<path d="M20.2045 11.8056C20.7966 11.8056 21.0926 11.8056 21.3319 11.951C21.5229 12.0671 21.7036 12.2996 21.7689 12.5133C21.8508 12.7811 21.7872 13.0306 21.6601 13.5295C21.2522 15.1306 20.4931 16.5914 19.4696 17.825C19.14 18.2223 18.9752 18.4209 18.7104 18.5122C18.4989 18.5851 18.2048 18.5757 17.9985 18.4893C17.7401 18.3812 17.5658 18.1414 17.2173 17.6617L13.8855 13.0758C13.5877 12.6659 13.4388 12.461 13.4442 12.2899C13.4488 12.1409 13.5197 12.0018 13.6375 11.9105C13.7727 11.8056 14.0261 11.8056 14.5327 11.8056H20.2045Z" fill="var(--fill-0, white)"/>
<path d="M12 1.6011C12 1.00899 12 0.71293 12.1454 0.473621C12.2615 0.282642 12.494 0.101948 12.7077 0.0366301C12.9755 -0.0452169 13.2251 0.0183689 13.7242 0.14554C17.6105 1.13571 20.6699 4.19511 21.6601 8.08137C21.7872 8.5805 21.8508 8.83007 21.769 9.09787C21.7036 9.31159 21.523 9.5441 21.332 9.66016C21.0927 9.8056 20.7966 9.8056 20.2045 9.8056L12.8 9.80559C12.52 9.80559 12.38 9.80559 12.273 9.7511C12.1789 9.70316 12.1024 9.62667 12.0545 9.53259C12 9.42563 12 9.28562 12 9.0056V1.6011Z" fill="var(--fill-0, white)"/>
</g>
</svg>
