<svg preserveAspectRatio="none" width="100%" height="100%" overflow="visible" style="display: block;" viewBox="0 0 24 24" fill="none" xmlns="http://www.w3.org/2000/svg">
<path id="Solid" d="M18.4783 23.3333H4.85503C4.24005 23.3334 3.70946 23.3334 3.27247 23.2977C2.81123 23.26 2.35248 23.1768 1.91104 22.9519C1.25247 22.6163 0.717037 22.0809 0.38148 21.4223C0.261924 21.1877 0.18241 20.9481 0.128488 20.7059C0.0992085 20.5744 0.0845687 20.5087 0.0918469 20.4204C0.0976145 20.3505 0.124231 20.259 0.156891 20.1969C0.198106 20.1185 0.25673 20.0599 0.373978 19.9426L7 13.3166L9.03416 15.3508C9.13238 15.4491 9.24972 15.5665 9.36153 15.6614C9.49111 15.7714 9.68781 15.9179 9.95922 16.0061C10.3107 16.1203 10.6893 16.1203 11.0408 16.0061C11.3122 15.9179 11.5089 15.7714 11.6385 15.6614C11.7503 15.5665 11.8676 15.4491 11.9658 15.3508L16.3333 10.9833V12.8333C16.3333 13.4777 16.8557 14 17.5 14C18.1443 14 18.6667 13.4777 18.6667 12.8333V8.16667C18.6667 7.52234 18.1443 7 17.5 7H12.8333C12.189 7 11.6667 7.52234 11.6667 8.16667C11.6667 8.811 12.189 9.33334 12.8333 9.33334H14.6834L10.5 13.5168L8.46584 11.4826C8.36762 11.3843 8.2503 11.2669 8.13847 11.1719C8.00889 11.0619 7.81219 10.9155 7.54078 10.8273C7.18931 10.7131 6.8107 10.7131 6.45922 10.8273C6.18781 10.9155 5.99112 11.0619 5.86153 11.1719C5.74974 11.2668 5.63245 11.3842 5.53424 11.4825L1.5933 15.4234C1.09353 15.9232 0.843642 16.1731 0.629102 16.19C0.44295 16.2046 0.261034 16.1293 0.139764 15.9873C9.38773e-07 15.8237 9.38988e-07 15.4703 9.38988e-07 14.7635V4.85503C-1.90194e-05 4.24004 -3.62362e-05 3.70946 0.0356673 3.27247C0.0733518 2.81123 0.156554 2.35248 0.38148 1.91103C0.717037 1.25247 1.25247 0.717036 1.91104 0.381478C2.35248 0.156551 2.81123 0.0733495 3.27247 0.035665C3.70946 -3.89526e-05 4.24001 -2.11498e-05 4.85501 1.10257e-06H18.4783C19.0933 -2.11498e-05 19.6239 -3.89526e-05 20.0609 0.035665C20.5221 0.0733495 20.9809 0.156551 21.4223 0.381478C22.0809 0.717036 22.6163 1.25247 22.9519 1.91103C23.1768 2.35248 23.26 2.81123 23.2977 3.27247C23.3334 3.70946 23.3334 4.24001 23.3333 4.85501V18.4783C23.3334 19.0933 23.3334 19.6239 23.2977 20.0609C23.26 20.5221 23.1768 20.9809 22.9519 21.4223C22.6163 22.0809 22.0809 22.6163 21.4223 22.9519C20.9809 23.1768 20.5221 23.26 20.0609 23.2977C19.6239 23.3334 19.0933 23.3334 18.4783 23.3333Z" fill="var(--fill-0, white)"/>
</svg>
