<svg width="120" height="42" viewBox="0 0 120 42" fill="none" xmlns="http://www.w3.org/2000/svg">
<path fill-rule="evenodd" clip-rule="evenodd" d="M46.6319 17.3128L51.7391 14.064C51.7391 20.8356 51.7391 27.6062 51.7391 34.3779H49.186C47.781 34.3779 46.6319 33.1222 46.6319 31.5881C46.6319 26.8296 46.6319 22.0712 46.6319 17.3128ZM63.4993 34.3779V12.7827H56.3467L57.3775 7.62319C63.3708 7.62319 69.3641 7.62319 75.3574 7.62319V10.2035C75.3574 11.6218 74.2949 12.7827 72.9959 12.7827H68.7115V34.3779H63.4993ZM101.84 7.62319C104.877 7.62319 107.915 7.62319 110.952 7.62319C113.4 7.62319 115.365 8.19028 116.84 9.33003C118.315 10.4709 119.05 12.1588 119.05 14.3882C119.05 15.6237 118.7 16.7267 117.994 17.7005C117.289 18.6753 116.455 19.3951 115.499 19.8541C116.828 20.3387 117.913 21.1732 118.746 22.3575C119.58 23.543 119.994 24.9691 119.994 26.638C119.994 28.1933 119.638 29.5492 118.927 30.709C118.216 31.8688 117.207 32.7668 115.901 33.4097C114.595 34.0537 113.039 34.3779 111.231 34.3779C108.952 34.3779 106.673 34.3779 104.393 34.3779C102.989 34.3779 101.848 33.1222 101.84 31.5881C101.795 23.5441 101.826 15.5948 101.84 7.62319ZM74.4611 34.3779L82.7434 10.4709C83.3491 8.72283 84.8061 7.62319 86.517 7.62319H89.6237L99.0337 34.3779H93.2097L91.303 28.6446H81.9807L81.0294 31.5881C80.4931 33.1891 78.7771 34.3779 77.2385 34.3779C76.3127 34.3779 75.3869 34.3779 74.4611 34.3779ZM49.186 6.38428C50.7939 6.38428 52.097 7.80925 52.097 9.56623C52.097 11.3232 50.7939 12.7471 49.186 12.7471C47.5781 12.7471 46.275 11.3232 46.275 9.56623C46.275 7.80925 47.5781 6.38428 49.186 6.38428ZM83.2053 23.8672H90.0438L86.5812 13.8155L83.2053 23.8672ZM107.016 18.7455H110.235C111.401 18.7455 112.327 18.4336 113.01 17.8097C113.692 17.1846 114.03 16.3123 114.03 15.1915C114.03 14.1208 113.698 13.2997 113.027 12.7259C112.357 12.1521 111.394 11.8658 110.147 11.8658H107.016V18.7455ZM107.016 30.1353H110.463C113.237 30.1353 114.625 28.9064 114.625 26.4475C114.625 25.2621 114.286 24.3451 113.61 23.6956C112.934 23.0461 111.92 22.7207 110.567 22.7207H107.016V30.1353Z" fill="white"/>
<path fill-rule="evenodd" clip-rule="evenodd" d="M34.9788 4.24594C28.698 4.24594 23.5285 9.74751 23.3205 16.5582V29.7238C22.1154 21.8302 11.4961 7.15939 0.00407844 4.24594L0 13.9946C0.356864 19.9574 3.4524 21.8715 7.66849 23.4959C13.3039 25.7787 22.1521 29.1946 23.3205 36.8309C19.6397 30.1773 7.68684 26.5853 1.10016 26.6299C1.52126 28.2409 2.08306 29.7015 2.8233 31.024C5.08786 35.0672 9.16834 38.2157 13.6057 38.2157H21.3772C25.8145 38.2157 29.895 35.0672 32.1595 31.024C34.1651 27.4421 34.8758 22.8485 34.9788 16.9849V4.24594ZM17.4914 0C20.174 0 22.3488 2.37644 22.3488 5.30771C22.3488 8.23898 20.174 10.6154 17.4914 10.6154C14.8088 10.6154 12.634 8.23898 12.634 5.30771C12.634 2.37644 14.8088 0 17.4914 0Z" fill="white"/>
</svg>
