<svg preserveAspectRatio="none" width="100%" height="100%" overflow="visible" style="display: block;" viewBox="0 0 22 22" fill="none" xmlns="http://www.w3.org/2000/svg">
<g id="Solid">
<path d="M4.29289 0.292893C4.68342 -0.0976311 5.31658 -0.0976311 5.70711 0.292893L7.70711 2.29289C8.09763 2.68342 8.09763 3.31658 7.70711 3.70711L5.70711 5.70711C5.31658 6.09763 4.68342 6.09763 4.29289 5.70711C3.90237 5.31658 3.90237 4.68342 4.29289 4.29289L4.55266 4.03313C3.10798 4.24911 2 5.49516 2 7C2 7.55228 1.55228 8 1 8C0.447715 8 0 7.55228 0 7C0 4.37273 2.02635 2.21874 4.60144 2.01565L4.29289 1.70711C3.90237 1.31658 3.90237 0.683418 4.29289 0.292893Z" fill="var(--fill-0, white)"/>
<path d="M17.7071 16.2929C18.0976 16.6834 18.0976 17.3166 17.7071 17.7071L17.4473 17.9669C18.892 17.7509 20 16.5048 20 15C20 14.4477 20.4477 14 21 14C21.5523 14 22 14.4477 22 15C22 17.6273 19.9736 19.7813 17.3986 19.9843L17.7071 20.2929C18.0976 20.6834 18.0976 21.3166 17.7071 21.7071C17.3166 22.0976 16.6834 22.0976 16.2929 21.7071L14.2929 19.7071C14.1054 19.5196 14 19.2652 14 19C14 18.7348 14.1054 18.4804 14.2929 18.2929L16.2929 16.2929C16.6834 15.9024 17.3166 15.9024 17.7071 16.2929Z" fill="var(--fill-0, white)"/>
<path d="M8.0623 6.06204C8.52062 2.63955 11.4521 0 15 0C18.866 0 22 3.13401 22 7C22 10.5479 19.3605 13.4794 15.938 13.9377C15.4533 9.81619 12.1838 6.54667 8.0623 6.06204Z" fill="var(--fill-0, white)"/>
<path d="M7 8C3.13401 8 0 11.134 0 15C0 18.866 3.13401 22 7 22C10.866 22 14 18.866 14 15C14 11.134 10.866 8 7 8Z" fill="var(--fill-0, white)"/>
</g>
</svg>
