<svg width="390" height="236" viewBox="0 0 390 236" fill="none" xmlns="http://www.w3.org/2000/svg">
<g filter="url(#filter0_f_10003_4428)">
<path d="M-21.3363 182.509C-28.8835 134.041 28.8646 90.3751 111.092 82.3741L121.557 81.3559C149.02 78.6837 177.185 79.9739 203.598 85.114L212.821 86.9089C243.726 92.9231 271.808 103.055 294.843 116.504L336.271 140.69L436.827 212.442C460.724 229.494 460.724 254.017 436.827 271.069L336.271 342.821L294.843 367.007C271.808 380.455 243.726 390.588 212.821 396.602L203.598 398.397C177.185 403.537 149.02 404.827 121.557 402.155L111.092 401.137C28.8646 393.136 -28.8836 349.47 -21.3363 301.002C-19.1654 287.06 -11.6305 273.585 0.706177 261.581L21.0816 241.755L0.706168 221.93C-11.6306 209.926 -19.1654 196.45 -21.3363 182.509Z" fill="#59AD3B"/>
</g>
<defs>
<filter id="filter0_f_10003_4428" x="-101.999" y="0" width="636.749" height="483.511" filterUnits="userSpaceOnUse" color-interpolation-filters="sRGB">
<feFlood flood-opacity="0" result="BackgroundImageFix"/>
<feBlend mode="normal" in="SourceGraphic" in2="BackgroundImageFix" result="shape"/>
<feGaussianBlur stdDeviation="40" result="effect1_foregroundBlur_10003_4428"/>
</filter>
</defs>
</svg>
